<svg xmlns="http://www.w3.org/2000/svg" width="384.761" height="282.798" viewBox="0 0 101.801 74.824"><defs><path id="a" d="M96.222-391.766h623.149v61.216H96.222z"/><path id="b" d="M1129.639-539.514h87.954v81.075h-87.954z"/><path id="c" d="M1129.639-539.514h87.954v81.075h-87.954z"/></defs><g transform="translate(866.392 -768.012)"><path fill="none" d="M-866.392 768.012h101.801v74.824h-101.801z" style="fill:#fff;fill-opacity:0;fill-rule:evenodd;stroke-width:.77956;stroke-dashoffset:3.77697;paint-order:markers fill stroke"/><path fill="none" d="M-866.392 768.012h101.801v74.824h-101.801zM-849.217 851.289h101.801v74.824h-101.801z" style="fill:#fff;fill-opacity:0;fill-rule:evenodd;stroke-width:.77956;stroke-dashoffset:3.77697;paint-order:markers fill stroke"/><g style="fill:#fff;fill-opacity:1;stroke:#fff;stroke-width:.805157;stroke-dasharray:none;stroke-opacity:1"><path d="M-432.204 323.236q-4.152 0-6.943-2.447l2.47-3.383q.966.792 1.86 1.151.93.36 2.04.36 1.682 0 2.541-.971.895-.972.895-2.735v-15.798h5.082v15.906q0 2.987-1.217 4.75-1.216 1.763-3.006 2.483-1.79.684-3.722.684z" style="font-style:normal;font-variant:normal;font-weight:700;font-stretch:normal;font-size:50.8px;line-height:0;font-family:Dubai;-inkscape-font-specification:&quot;Dubai Bold&quot;;letter-spacing:-3.18421px;word-spacing:0;writing-mode:lr-tb;white-space:pre;fill:#fff;fill-opacity:1;stroke:#fff;stroke-width:.805157;stroke-miterlimit:4;stroke-dasharray:none;stroke-opacity:1" transform="matrix(.7452 0 0 .7452 -504.952 559.477)"/><path d="M-414.39 323.02q-2.684 0-4.58-1.15-1.862-1.152-2.792-3.096-.93-1.979-.93-4.39 0-3.095 1.18-5.002 1.217-1.907 3.186-2.735 1.968-.864 4.402-.864 2.72 0 4.58 1.116 1.898 1.08 2.828 3.023.93 1.943.93 4.498 0 2.987-1.18 4.93-1.146 1.907-3.15 2.807-1.968.864-4.474.864zm.251-3.634q1.933 0 2.72-1.331.787-1.368.787-3.671 0-2.447-.859-3.707-.823-1.26-2.576-1.26-1.897 0-2.756 1.26-.86 1.224-.86 3.707 0 2.34.86 3.67.894 1.332 2.684 1.332zM-389.043 313.16q0 .72-.143 2.519h-10.307q.214 2.015 1.324 2.986 1.11.936 2.648.936 1.146 0 2.22-.324 1.073-.324 2.29-1.043l1.646 2.95q-1.288.972-2.97 1.512-1.683.54-3.65.54-2.363 0-4.26-.864-1.861-.864-3.006-2.735-1.11-1.907-1.11-4.894 0-2.735.93-4.714.967-1.98 2.757-2.987 1.825-1.044 4.294-1.044 2.362 0 4.009.936 1.682.935 2.505 2.555t.823 3.67zm-7.23-3.851q-1.252 0-2.04.792-.75.755-1.037 2.41h5.69v-.107q0-1.656-.715-2.375-.716-.72-1.897-.72z" style="font-style:normal;font-variant:normal;font-weight:700;font-stretch:normal;font-size:50.8px;line-height:0;font-family:Dubai;-inkscape-font-specification:&quot;Dubai Bold&quot;;letter-spacing:-2.32367px;word-spacing:0;writing-mode:lr-tb;white-space:pre;fill:#fff;fill-opacity:1;stroke:#fff;stroke-width:.805157;stroke-miterlimit:4;stroke-dasharray:none;stroke-opacity:1" transform="matrix(.7452 0 0 .7452 -504.952 559.477)"/></g><path d="M-843.5 816.864h-3.576v-9.185l-2.584 5.96h-2.48l-2.584-5.96v9.185h-3.39v-13.717h4.176l3.136 6.881 3.127-6.881h4.175zM-834.654 817.14q-1.376 0-2.518-.322-1.133-.323-1.975-.995-.833-.673-1.292-1.695-.459-1.023-.459-2.396 0-1.446.487-2.496.496-1.05 1.376-1.741.852-.654 1.966-.958 1.114-.304 2.312-.304 1.077 0 1.985.23.908.23 1.694.599v2.828h-.477q-.197-.166-.477-.387-.272-.22-.675-.433-.383-.202-.842-.331-.459-.139-1.067-.139-1.348 0-2.079.848-.72.838-.72 2.285 0 1.492.74 2.266.748.773 2.115.773.636 0 1.142-.138.515-.147.852-.34.318-.185.562-.387.243-.203.449-.397h.477v2.828q-.795.369-1.666.58-.861.222-1.91.222zM-816.334 816.08q-.936.36-2.48.72-1.545.35-3.08.35-3.558 0-5.57-1.899-2.013-1.906-2.013-5.26 0-3.196 2.031-5.15 2.032-1.961 5.664-1.961 1.376 0 2.621.249 1.245.239 2.771.967v3.215h-.402q-.263-.194-.768-.544-.506-.359-.974-.608-.543-.295-1.273-.506-.72-.212-1.535-.212-.955 0-1.732.276t-1.395.848q-.59.552-.936 1.409-.337.848-.337 1.962 0 2.276 1.226 3.482 1.227 1.207 3.623 1.207.206 0 .45-.009.252-.009.458-.028v-2.69h-2.78v-2.588h6.431zM-802.826 816.864h-3.37v-1.143q-.936.7-1.713 1.069-.777.36-1.853.36-1.742 0-2.687-.987-.936-.985-.936-2.91v-6.734h3.389v5.13q0 .784.046 1.309.057.516.244.856.178.341.533.498.365.156 1.011.156.431 0 .955-.156.524-.157 1.011-.46v-7.333h3.37zM-796.273 816.864h-3.37v-10.345h3.37zM-785.47 809.678h-.3q-.215-.073-.693-.11-.477-.037-.795-.037-.721 0-1.274.092-.552.092-1.189.313v6.928h-3.37v-10.345h3.37v1.52q1.115-.94 1.938-1.244.824-.313 1.517-.313.178 0 .402.009.225.009.394.027zM-772.402 816.864h-3.923l-2.949-4.505-.917 1.096v3.409h-3.37V802.53h3.37v8.558l3.632-4.57h3.885l-3.782 4.46z" style="font-weight:700;font-size:50.8px;line-height:24px;font-family:Dubai;-inkscape-font-specification:&quot;Dubai Bold&quot;;letter-spacing:-.00159224px;word-spacing:0;white-space:pre;fill:#fff;stroke:#fff;stroke-width:.886998"/><rect width="98.074" height="8.95" x="-864.529" y="819.599" ry="2.601" style="fill:#ff7f24;fill-opacity:1;fill-rule:evenodd;stroke:none;stroke-width:.540971;stroke-linecap:round;stroke-linejoin:round;stroke-opacity:1"/><g aria-label="CAMBRIDGE CITY COUNCIL" style="font-size:4.23333px;line-height:2px;font-family:Dubai;-inkscape-font-specification:Dubai;letter-spacing:0;word-spacing:0;white-space:pre;shape-inside:url(#a);display:inline;fill:#fff;stroke:#fff;stroke-width:.069273" transform="matrix(1.53057 0 0 1.78494 -1007.982 1522.141)"><path d="M99.013-389.772q-.114.05-.207.093-.09.043-.24.09-.125.04-.274.067-.147.028-.325.028-.335 0-.61-.092-.272-.096-.475-.296-.198-.196-.31-.498-.112-.304-.112-.705 0-.38.108-.68.107-.3.31-.507.196-.2.473-.306.28-.105.618-.105.248 0 .494.06.248.06.55.21v.487h-.03q-.255-.213-.505-.31-.25-.098-.536-.098-.233 0-.421.077-.186.074-.333.234-.143.155-.223.392-.079.236-.079.546 0 .325.087.558.089.234.227.38.145.153.337.228.195.072.41.072.295 0 .554-.101.258-.101.483-.304h.03zM102.019-389.55h-.436l-.302-.857H99.95l-.302.858h-.416l1.12-3.078h.546zm-.864-1.208-.54-1.512-.541 1.512zM105.227-389.55h-.41v-2.651l-.855 1.804h-.244l-.85-1.804v2.652h-.382v-3.078h.558l.82 1.713.794-1.713h.569zM108.375-390.496q0 .23-.087.405-.087.176-.233.29-.174.136-.383.194-.207.058-.527.058h-1.091v-3.078h.911q.337 0 .505.025.167.025.32.103.17.089.246.23.076.138.076.332 0 .22-.111.374-.112.153-.298.246v.017q.312.064.492.275.18.209.18.529zm-.688-1.387q0-.112-.038-.188-.037-.077-.12-.124-.097-.056-.235-.068-.139-.015-.343-.015h-.488v.889h.529q.192 0 .306-.019.114-.02.21-.082.098-.062.137-.16.042-.099.042-.233zm.262 1.404q0-.186-.056-.296-.056-.11-.202-.186-.1-.052-.242-.066-.14-.017-.343-.017h-.643v1.145h.541q.27 0 .44-.027.172-.028.282-.103.116-.08.17-.184.053-.103.053-.266zM111.502-389.55h-.53l-1.03-1.223h-.577v1.224h-.41v-3.078h.863q.279 0 .465.037.186.035.335.128.167.106.26.267.095.16.095.405 0 .333-.167.558-.168.223-.461.337zm-.957-2.211q0-.132-.047-.234-.046-.103-.153-.173-.09-.06-.211-.083-.122-.025-.287-.025h-.482v1.162h.413q.195 0 .34-.033.144-.035.245-.128.093-.087.137-.199.045-.113.045-.287zM112.984-389.55h-1.215v-.313h.403v-2.45h-.403v-.314h1.215v.314h-.403v2.45h.403zM116.281-391.085q0 .42-.184.76-.181.342-.485.53-.211.13-.472.188-.258.058-.682.058h-.777v-3.078h.769q.45 0 .715.066.267.064.45.178.315.196.49.523.176.326.176.775zm-.428-.006q0-.362-.126-.61t-.376-.39q-.182-.104-.386-.143-.205-.041-.49-.041h-.385v2.375h.385q.295 0 .514-.044.222-.043.406-.161.229-.147.343-.387.115-.24.115-.599zM119.51-389.777q-.252.116-.552.203-.297.085-.577.085-.36 0-.659-.1-.3-.099-.51-.297-.213-.2-.33-.5-.115-.302-.115-.705 0-.738.43-1.164.432-.428 1.184-.428.263 0 .536.064.275.062.591.213v.486h-.037q-.064-.05-.186-.13-.122-.081-.24-.135-.143-.064-.325-.105-.18-.044-.409-.044-.517 0-.818.333-.3.33-.3.897 0 .598.314.93.314.331.856.331.198 0 .395-.04.198-.038.347-.1v-.755h-.825v-.36h1.23zM122.253-389.55h-2.028v-3.077h2.028v.364h-1.618v.843h1.618v.364h-1.618v1.143h1.618zM126.768-389.772q-.114.05-.207.093-.091.043-.24.09-.126.04-.275.067-.147.028-.324.028-.335 0-.61-.092-.273-.096-.476-.296-.198-.196-.31-.498-.111-.304-.111-.705 0-.38.107-.68.108-.3.31-.507.197-.2.474-.306.279-.105.618-.105.248 0 .494.06.248.06.55.21v.487h-.031q-.255-.213-.505-.31-.25-.098-.535-.098-.234 0-.422.077-.186.074-.333.234-.142.155-.223.392-.078.236-.078.546 0 .325.086.558.09.234.228.38.144.153.337.228.194.072.409.072.296 0 .554-.101.258-.101.484-.304h.029zM128.432-389.55h-1.216v-.313h.403v-2.45h-.403v-.314h1.216v.314h-.404v2.45h.404zM131.323-392.263h-1.1v2.714h-.409v-2.714h-1.1v-.364h2.61zM133.915-392.627l-1.083 1.728v1.35h-.409v-1.307l-1.087-1.771h.452l.842 1.377.85-1.377zM138.207-389.772q-.114.05-.207.093-.091.043-.24.09-.126.04-.275.067-.147.028-.324.028-.335 0-.61-.092-.273-.096-.476-.296-.198-.196-.31-.498-.111-.304-.111-.705 0-.38.107-.68.108-.3.31-.507.197-.2.474-.306.279-.105.618-.105.248 0 .494.06.248.06.55.21v.487h-.031q-.255-.213-.505-.31-.25-.098-.535-.098-.234 0-.422.077-.186.074-.333.234-.142.155-.223.392-.078.236-.078.546 0 .325.086.558.09.234.228.38.144.153.337.228.194.072.409.072.296 0 .554-.101.258-.101.484-.304h.029zM141.08-392.274q.188.207.287.507.101.3.101.68 0 .38-.103.682-.101.3-.285.5-.19.209-.45.314-.26.106-.592.106-.324 0-.591-.108-.265-.107-.45-.312-.187-.204-.288-.502-.1-.298-.1-.68 0-.376.1-.674.1-.3.29-.513.181-.202.45-.31.27-.107.589-.107.33 0 .593.11.265.107.449.307zm-.037 1.187q0-.6-.27-.924-.268-.327-.733-.327-.47 0-.738.327-.266.324-.266.924 0 .605.272.928.273.32.732.32.459 0 .73-.32.273-.323.273-.928zM144.435-390.785q0 .334-.075.585-.072.248-.24.413-.159.157-.372.23-.212.072-.496.072-.29 0-.504-.077-.215-.076-.362-.225-.167-.17-.242-.41-.072-.24-.072-.588v-1.842h.41v1.862q0 .25.032.395.035.145.116.263.091.134.246.202.157.068.376.068.221 0 .377-.066.155-.068.248-.204.08-.118.113-.27.035-.152.035-.377v-1.873h.41zM147.564-389.55h-.506l-1.46-2.753v2.754h-.382v-3.078h.635l1.33 2.513v-2.513h.383zM150.76-389.772q-.114.05-.207.093-.09.043-.24.09-.126.04-.275.067-.146.028-.324.028-.335 0-.61-.092-.273-.096-.475-.296-.199-.196-.31-.498-.112-.304-.112-.705 0-.38.108-.68.107-.3.31-.507.196-.2.473-.306.279-.105.618-.105.248 0 .494.06.248.06.55.21v.487h-.031q-.254-.213-.505-.31-.25-.098-.535-.098-.233 0-.422.077-.186.074-.332.234-.143.155-.224.392-.078.236-.078.546 0 .325.087.558.089.234.227.38.145.153.337.228.194.072.41.072.295 0 .553-.101.259-.101.484-.304h.029zM152.424-389.55h-1.216v-.313h.403v-2.45h-.403v-.314h1.216v.314h-.403v2.45h.403zM155.068-389.55h-1.948v-3.077h.41v2.714h1.538z"/></g><path d="M458.242 293.147c-2.278 2.278-2.849.033-5.606 1.7-2.757 1.666-1.034 3.214-4.11 4.173-3.076.958-2.538-1.295-5.753-1.1-3.216.194-2.41 2.366-5.58 1.785-3.168-.58-1.644-2.325-4.582-3.647-2.938-1.323-3.234.975-5.77-1.012-2.536-1.987-.376-2.824-2.363-5.36-1.987-2.536-3.316-.639-4.638-3.577-1.323-2.938.979-2.675.398-5.844-.58-3.169-2.64-2.107-2.445-5.323.195-3.215 2.11-1.913 3.07-4.989.958-3.076-1.359-3.092.308-5.85 1.666-2.757 2.758-.713 5.036-2.991 2.278-2.278.234-3.37 2.991-5.036 2.758-1.667 2.774.65 5.85-.309 3.076-.958 1.773-2.874 4.99-3.069 3.215-.194 2.153 1.865 5.322 2.445 3.17.581 2.906-1.72 5.844-.398s1.041 2.651 3.577 4.638 3.373-.173 5.36 2.363-.31 2.832 1.011 5.77c1.323 2.938 3.068 1.414 3.648 4.583.581 3.169-1.59 2.363-1.785 5.579-.195 3.216 2.058 2.677 1.1 5.753-.959 3.076-2.507 1.353-4.174 4.11-1.666 2.757.579 3.328-1.7 5.606z" style="fill:#ff7f24;fill-opacity:1;fill-rule:evenodd;stroke:#fff;stroke-width:.43682;stroke-linecap:round;stroke-linejoin:round;stroke-miterlimit:4;stroke-dasharray:none;stroke-opacity:1;paint-order:fill markers stroke" transform="rotate(-22.949 1352.357 2947.039) scale(.37556)"/><circle cx="-1090.296" cy="397.771" r="7.34" style="fill:#073763;fill-opacity:1;fill-rule:evenodd;stroke:#fff;stroke-width:.0665845;stroke-linecap:round;stroke-linejoin:round;stroke-miterlimit:4;stroke-dasharray:none;stroke-opacity:1" transform="rotate(-22.95)"/><circle cx="-1090.296" cy="397.771" r="6.785" style="fill:#fff;fill-opacity:1;fill-rule:evenodd;stroke:#ececec;stroke-width:.061551;stroke-linecap:round;stroke-linejoin:round;stroke-miterlimit:4;stroke-dasharray:none;stroke-opacity:1" transform="rotate(-22.95)"/><g style="font-weight:700;font-size:19.7556px;line-height:9.33333px;font-family:Arial;-inkscape-font-specification:&quot;Arial Bold&quot;;letter-spacing:0;word-spacing:0;white-space:pre;shape-inside:url(#b);display:inline;fill:#073763;stroke-width:.399571"><path d="M1141.793-529.17h-9.588v-2.509h3.028v-7.591h-3.028v-2.344q.694 0 1.33-.078.637-.086 1.062-.289.501-.241.752-.627t.29-.965h3.193v11.894h2.961z" aria-label="1" style="font-family:Dubai;-inkscape-font-specification:&quot;Dubai Bold&quot;" transform="matrix(.44547 -.13461 .11992 .51601 -1288.643 1220.763)"/></g><g style="font-weight:700;font-size:19.7556px;line-height:9.33333px;font-family:Arial;-inkscape-font-specification:&quot;Arial Bold&quot;;letter-spacing:0;word-spacing:0;white-space:pre;shape-inside:url(#c);display:inline;fill:#073763;stroke-width:.399571"><path d="M1139.821-542.976h-1.981l-.49 1.95h1.769v1.505h-2.144l-.57 2.22h-1.512l.558-2.22h-1.655l-.558 2.22h-1.536l.564-2.22h-1.693v-1.505h2.069l.483-1.95h-1.837v-1.499h2.213l.54-2.163h1.535l-.539 2.163h1.65l.545-2.163h1.536l-.546 2.163h1.6zm-3.486-.012h-1.68l-.502 1.98h1.687z" aria-label="#" style="font-size:65%;font-family:Dubai;-inkscape-font-specification:&quot;Dubai Bold&quot;;baseline-shift:super" transform="matrix(.50834 -.1536 .13684 .58883 -1354.51 1284.163)"/></g><circle cx="-797.943" cy="803.4" r="2.129" style="fill:#fff;stroke:none;stroke-width:21.318;stroke-linejoin:round"/></g></svg>