<?xml version="1.0" encoding="UTF-8" standalone="no"?>
<svg
   width="384.761"
   height="282.798"
   viewBox="0 0 101.801 74.824"
   version="1.1"
   id="svg994"
   sodipodi:docname="leduc-art-and-antiques-white-logo.svg"
   inkscape:version="1.2.2 (732a01da63, 2022-12-09)"
   xmlns:inkscape="http://www.inkscape.org/namespaces/inkscape"
   xmlns:sodipodi="http://sodipodi.sourceforge.net/DTD/sodipodi-0.dtd"
   xmlns="http://www.w3.org/2000/svg"
   xmlns:svg="http://www.w3.org/2000/svg">
  <defs
     id="defs998" />
  <sodipodi:namedview
     id="namedview996"
     pagecolor="#505050"
     bordercolor="#eeeeee"
     borderopacity="1"
     inkscape:showpageshadow="0"
     inkscape:pageopacity="0"
     inkscape:pagecheckerboard="0"
     inkscape:deskcolor="#505050"
     showgrid="false"
     inkscape:zoom="2.3603731"
     inkscape:cx="308.84948"
     inkscape:cy="100.61969"
     inkscape:window-width="3840"
     inkscape:window-height="2066"
     inkscape:window-x="-11"
     inkscape:window-y="-11"
     inkscape:window-maximized="1"
     inkscape:current-layer="svg994" />
  <path
     fill="none"
     d="M-171.714 430.741h101.801v74.824h-101.801z"
     style="fill:#fff;fill-opacity:0;fill-rule:evenodd;stroke-width:.77956;stroke-dashoffset:3.77697;paint-order:markers fill stroke"
     transform="translate(171.714 -430.74)"
     id="path966" />
  <g
     aria-label="LEDUC"
     transform="translate(67.733 -431.527)"
     id="text970"
     style="font-weight:700;font-size:10.3838px;line-height:0.919824px;font-family:Garamond;-inkscape-font-specification:'Garamond, Bold';letter-spacing:1.46022px;word-spacing:0;fill:#ffffff;stroke-width:0.121685">
    <path
       d="m -31.522212,490.42258 -0.258581,2.41342 h -6.104538 v -0.1876 h 0.22816 q 0.299142,0 0.48167,-0.10647 0.131826,-0.071 0.202809,-0.24337 0.05577,-0.12169 0.05577,-0.63885 v -4.52263 q 0,-0.52731 -0.05577,-0.65913 -0.05577,-0.13183 -0.22816,-0.22816 -0.167317,-0.1014 -0.456319,-0.1014 h -0.22816 v -0.1876 h 3.665765 v 0.1876 h -0.299142 q -0.299143,0 -0.481671,0.10647 -0.131825,0.071 -0.207879,0.24337 -0.05577,0.12169 -0.05577,0.63885 v 4.38066 q 0,0.52731 0.06084,0.67434 0.06084,0.14197 0.2383,0.21295 0.126755,0.0456 0.613496,0.0456 h 0.572934 q 0.547583,0 0.912639,-0.19267 0.365055,-0.19266 0.628706,-0.60842 0.268722,-0.41576 0.507022,-1.22699 z"
       id="path1194" />
    <path
       d="m -26.862686,486.35626 v 2.79876 h 0.136896 q 0.654057,0 0.94813,-0.41068 0.294072,-0.41069 0.375196,-1.21179 h 0.192668 v 3.59986 h -0.192668 q -0.06084,-0.58815 -0.258581,-0.96334 -0.192668,-0.3752 -0.451249,-0.50196 -0.258581,-0.13182 -0.750392,-0.13182 v 1.93682 q 0,0.56786 0.04563,0.69462 0.0507,0.12676 0.182527,0.20788 0.131826,0.0811 0.425899,0.0811 h 0.410687 q 0.963341,0 1.541345,-0.44618 0.583075,-0.44618 0.836586,-1.35881 h 0.187598 l -0.309284,2.18526 h -5.942291 v -0.1876 h 0.22816 q 0.299142,0 0.48167,-0.10647 0.131826,-0.071 0.202809,-0.24337 0.05577,-0.12169 0.05577,-0.63885 v -4.52263 q 0,-0.46646 -0.02535,-0.57294 -0.0507,-0.17745 -0.187598,-0.27379 -0.192668,-0.14196 -0.527302,-0.14196 h -0.22816 v -0.1876 h 5.754693 v 2.03315 h -0.192668 q -0.147036,-0.74532 -0.415757,-1.06981 -0.263651,-0.3245 -0.750392,-0.4766 -0.283932,-0.0913 -1.064745,-0.0913 z"
       id="path1196" />
    <path
       d="m -21.168837,492.836 v -0.1876 h 0.22816 q 0.299142,0 0.456319,-0.0913 0.162247,-0.0963 0.2383,-0.25858 0.04563,-0.10648 0.04563,-0.63885 v -4.52263 q 0,-0.52731 -0.05577,-0.65913 -0.05577,-0.13183 -0.22816,-0.22816 -0.167317,-0.1014 -0.456319,-0.1014 h -0.22816 v -0.1876 h 3.07762 q 1.232062,0 1.982454,0.33463 0.917709,0.41069 1.389239,1.2422 0.4766,0.83152 0.4766,1.88105 0,0.72504 -0.23323,1.33854 -0.233229,0.60843 -0.603355,1.00897 -0.370126,0.39548 -0.856866,0.63885 -0.481671,0.2383 -1.18136,0.37013 -0.309284,0.0608 -0.973482,0.0608 z m 2.621301,-6.48481 v 5.36429 q 0,0.4259 0.04056,0.52223 0.04056,0.0963 0.136896,0.14704 0.136895,0.0761 0.395476,0.0761 0.846726,0 1.292905,-0.578 0.608426,-0.78081 0.608426,-2.42356 0,-1.32333 -0.415758,-2.11428 -0.329564,-0.61857 -0.846726,-0.84166 -0.365055,-0.15718 -1.211781,-0.15211 z"
       id="path1198" />
    <path
       d="m -12.103294,485.96079 h 3.5491501 v 0.1876 h -0.1774575 q -0.400547,0 -0.5526534,0.0862 -0.1470362,0.0811 -0.212949,0.22816 -0.060843,0.14703 -0.060843,0.73518 v 3.36662 q 0,0.92278 0.1368958,1.22192 0.141966,0.29915 0.4613895,0.49689 0.3194236,0.19773 0.8061642,0.19773 0.5577236,0 0.9481301,-0.24844 0.3954767,-0.25351 0.5881449,-0.69462 0.1977384,-0.44111 0.1977384,-1.53627 v -2.80383 q 0,-0.46139 -0.096334,-0.65913 -0.096334,-0.19774 -0.2433703,-0.27379 -0.2281597,-0.11661 -0.6439173,-0.11661 v -0.1876 h 2.3779307 v 0.1876 h -0.141966 q -0.2890023,0 -0.4816704,0.11661 -0.1926682,0.11662 -0.2788618,0.34985 -0.065913,0.16224 -0.065913,0.58307 v 2.61116 q 0,1.21178 -0.1622469,1.74922 -0.1571766,0.53745 -0.7757428,0.9887 -0.6185662,0.45125 -1.6883815,0.45125 -0.8923578,0 -1.3790984,-0.2383 -0.6641979,-0.3245 -0.9379899,-0.83152 -0.273791,-0.50702 -0.273791,-1.36389 v -3.36662 q 0,-0.59322 -0.06591,-0.73518 -0.06591,-0.14704 -0.22816,-0.23323 -0.162247,-0.0862 -0.598285,-0.0811 z"
       id="path1200" />
    <path
       d="m 3.5433873,485.80361 v 2.383 H 3.3456489 q -0.2230895,-0.93292 -0.8315152,-1.4298 -0.6084258,-0.49688 -1.3790984,-0.49688 -0.64391724,0 -1.18135999,0.37013 -0.53744275,0.37012 -0.78588327,0.96841 -0.31942354,0.7656 -0.31942354,1.70359 0,0.92278 0.23322989,1.68331 0.23322987,0.75546 0.73011091,1.14587 0.49688103,0.38534 1.2878345,0.38534 0.6489875,0 1.1864302,-0.28394 0.542513,-0.28393 1.1407983,-0.97855 v 0.59322 q -0.5780044,0.60335 -1.2067111,0.87714 -0.6236364,0.26873 -1.46022177,0.26873 -1.10023657,0 -1.95710283,-0.44111 -0.8517961,-0.44111 -1.3182558,-1.26756 -0.4613895,-0.82644 -0.4613895,-1.75936 0,-0.98362 0.5120916,-1.86584 0.5171619,-0.88222 1.3892388,-1.36896 0.87714717,-0.48674 1.86076881,-0.48674 0.72504069,0 1.53120479,0.31435 0.4664598,0.18253 0.5932151,0.18253 0.1622469,0 0.2788618,-0.11661 0.1216852,-0.12169 0.1571767,-0.38027 z"
       id="path1202" />
  </g>
  <g
     aria-label="Art &amp; Antiques"
     transform="translate(67.733 -431.527)"
     id="text974"
     style="font-weight:700;font-size:5.19189px;line-height:0.459911px;font-family:Garamond;-inkscape-font-specification:'Garamond, Bold';letter-spacing:0;word-spacing:0;fill:#ffffff;stroke-width:0.121685">
    <path
       d="m -31.142091,497.14346 h -1.214314 l -0.144501,0.33463 q -0.07098,0.16732 -0.07098,0.27633 0,0.1445 0.116615,0.21295 0.06845,0.0406 0.337169,0.0608 v 0.0938 h -1.143331 v -0.0938 q 0.185062,-0.0279 0.304212,-0.15211 0.11915,-0.12675 0.294072,-0.51969 l 1.229524,-2.74298 h 0.04817 l 1.239665,2.81903 q 0.177458,0.40055 0.291537,0.50449 0.08619,0.0786 0.24337,0.0913 v 0.0938 h -1.663027 v -0.0938 h 0.06845 q 0.200273,0 0.281396,-0.0558 0.05577,-0.0406 0.05577,-0.11662 0,-0.0456 -0.01521,-0.0938 -0.0051,-0.0228 -0.07605,-0.19013 z m -0.08619,-0.1876 -0.512091,-1.18389 -0.527301,1.18389 z"
       style="-inkscape-font-specification:'Garamond Bold'"
       id="path1169" />
    <path
       d="m -28.39404,495.75169 v 0.53744 q 0.235765,-0.36759 0.413222,-0.48674 0.177457,-0.12168 0.342239,-0.12168 0.141966,0 0.225624,0.0887 0.08619,0.0862 0.08619,0.24591 0,0.16985 -0.08366,0.26365 -0.08112,0.0938 -0.197738,0.0938 -0.13436,0 -0.233229,-0.0862 -0.09887,-0.0862 -0.116615,-0.0963 -0.02535,-0.0152 -0.05831,-0.0152 -0.07352,0 -0.139431,0.0558 -0.103939,0.0862 -0.157176,0.24591 -0.08112,0.2459 -0.08112,0.54251 v 0.54505 l 0.0025,0.14196 q 0,0.1445 0.01775,0.18506 0.03042,0.0685 0.08873,0.10141 0.06084,0.0304 0.202808,0.038 v 0.0913 h -1.280227 v -0.0913 q 0.154641,-0.0127 0.207879,-0.0837 0.05577,-0.0735 0.05577,-0.3828 v -1.31065 q 0,-0.20281 -0.02028,-0.25858 -0.02535,-0.071 -0.07352,-0.10394 -0.04817,-0.033 -0.169852,-0.0456 v -0.0938 z"
       style="-inkscape-font-specification:'Garamond Bold'"
       id="path1171" />
    <path
       d="m -26.132729,494.88468 v 0.86701 h 0.562793 v 0.25097 h -0.562793 v 1.46276 q 0,0.20534 0.01775,0.26618 0.02028,0.0583 0.06845,0.0963 0.04817,0.0355 0.08873,0.0355 0.164782,0 0.311818,-0.25098 l 0.07605,0.0558 q -0.205343,0.48674 -0.666732,0.48674 -0.225624,0 -0.3828,-0.12422 -0.154642,-0.12676 -0.197738,-0.2814 -0.02535,-0.0862 -0.02535,-0.46646 v -1.28023 h -0.309283 v -0.0887 q 0.319423,-0.22563 0.542512,-0.47407 0.225624,-0.24844 0.392941,-0.55519 z"
       style="-inkscape-font-specification:'Garamond Bold'"
       id="path1173" />
    <path
       d="m -21.265332,496.06604 h 1.054603 v 0.0989 q -0.177457,0.0254 -0.278861,0.10647 -0.101404,0.0786 -0.263651,0.37013 -0.162246,0.29154 -0.456318,0.65152 0.25858,0.23323 0.420827,0.32449 0.114079,0.0634 0.223089,0.0634 0.187597,0 0.339703,-0.2459 l 0.10394,0.0558 q -0.207879,0.40815 -0.443643,0.58054 -0.179993,0.12929 -0.410687,0.12929 -0.197738,0 -0.37773,-0.0837 -0.177457,-0.0862 -0.433503,-0.31942 -0.316888,0.21294 -0.595749,0.30928 -0.278861,0.0938 -0.580538,0.0938 -0.48167,0 -0.765601,-0.26112 -0.283932,-0.26111 -0.283932,-0.61349 0,-0.38027 0.271256,-0.66166 0.271256,-0.2814 0.788417,-0.48674 -0.06591,-0.16479 -0.09887,-0.32196 -0.03296,-0.15718 -0.03296,-0.30421 0,-0.40562 0.283931,-0.67434 0.286467,-0.27126 0.73011,-0.27126 0.357449,0 0.565328,0.17999 0.210413,0.17746 0.210413,0.41576 0,0.28647 -0.215484,0.49181 -0.212948,0.20281 -0.676872,0.37266 0.286467,0.50449 0.839119,1.08756 0.37266,-0.41829 0.37266,-0.71743 0,-0.10648 -0.07352,-0.18 -0.07352,-0.0761 -0.215484,-0.0913 z m -1.00897,-0.1521 q 0.266185,-0.0989 0.357449,-0.21042 0.09126,-0.11408 0.09126,-0.27379 0,-0.28393 -0.149571,-0.47913 -0.09887,-0.12929 -0.24337,-0.12929 -0.11915,0 -0.205343,0.0938 -0.08366,0.0938 -0.08366,0.25351 0,0.12422 0.04056,0.26619 0.04056,0.14197 0.192668,0.47914 z m -0.608425,0.42589 q -0.202808,0.0862 -0.286467,0.18253 -0.119149,0.14197 -0.119149,0.31689 0,0.2383 0.136895,0.47406 0.139431,0.23577 0.334634,0.36506 0.195203,0.12929 0.390405,0.12929 0.09633,0 0.215484,-0.0406 0.121685,-0.0431 0.263651,-0.12675 -0.61096,-0.62617 -0.935453,-1.30051 z"
       style="-inkscape-font-specification:'Garamond Bold'"
       id="path1175" />
    <path
       d="m -16.724963,497.14346 h -1.214314 l -0.144501,0.33463 q -0.07098,0.16732 -0.07098,0.27633 0,0.1445 0.116615,0.21295 0.06845,0.0406 0.337168,0.0608 v 0.0938 h -1.143331 v -0.0938 q 0.185063,-0.0279 0.304212,-0.15211 0.11915,-0.12675 0.294072,-0.51969 l 1.229525,-2.74298 h 0.04817 l 1.239665,2.81903 q 0.177457,0.40055 0.291537,0.50449 0.08619,0.0786 0.24337,0.0913 v 0.0938 h -1.663028 v -0.0938 h 0.06845 q 0.200273,0 0.281397,-0.0558 0.05577,-0.0406 0.05577,-0.11662 0,-0.0456 -0.01521,-0.0938 -0.0051,-0.0228 -0.07605,-0.19013 z m -0.08619,-0.1876 -0.51209,-1.18389 -0.527302,1.18389 z"
       style="-inkscape-font-specification:'Garamond Bold'"
       id="path1177" />
    <path
       d="m -13.992123,495.75169 v 0.30675 q 0.182527,-0.19774 0.349844,-0.28647 0.167317,-0.0913 0.359985,-0.0913 0.230694,0 0.3828,0.12929 0.152106,0.12675 0.202808,0.31688 0.04056,0.1445 0.04056,0.55519 v 0.92278 q 0,0.27379 0.04817,0.34224 0.0507,0.0659 0.207878,0.0837 v 0.0913 h -1.199103 v -0.0913 q 0.13436,-0.0178 0.192668,-0.11155 0.04056,-0.0634 0.04056,-0.31435 v -1.0546 q 0,-0.29154 -0.02282,-0.36759 -0.02282,-0.0761 -0.07859,-0.11662 -0.05324,-0.0431 -0.11915,-0.0431 -0.218018,0 -0.405616,0.31182 v 1.27009 q 0,0.26618 0.04817,0.33717 0.0507,0.071 0.185062,0.0887 v 0.0913 h -1.199103 v -0.0913 q 0.149571,-0.0152 0.212949,-0.0963 0.0431,-0.0558 0.0431,-0.32956 v -1.33854 q 0,-0.26872 -0.0507,-0.33463 -0.04817,-0.0659 -0.205343,-0.0862 v -0.0938 z"
       style="-inkscape-font-specification:'Garamond Bold'"
       id="path1179" />
    <path
       d="m -11.132527,494.88468 v 0.86701 h 0.562792 v 0.25097 h -0.562792 v 1.46276 q 0,0.20534 0.01774,0.26618 0.02028,0.0583 0.06845,0.0963 0.04817,0.0355 0.08873,0.0355 0.164781,0 0.311817,-0.25098 l 0.07605,0.0558 q -0.205343,0.48674 -0.666732,0.48674 -0.225624,0 -0.3828,-0.12422 -0.154641,-0.12676 -0.197738,-0.2814 -0.02535,-0.0862 -0.02535,-0.46646 v -1.28023 h -0.309283 v -0.0887 q 0.319423,-0.22563 0.542512,-0.47407 0.225624,-0.24844 0.392941,-0.55519 z"
       style="-inkscape-font-specification:'Garamond Bold'"
       id="path1181" />
    <path
       d="m -9.7737114,494.60329 q 0.1647816,0 0.2788613,0.11661 0.1140796,0.11408 0.1140796,0.27633 0,0.16224 -0.1166147,0.27632 -0.1140797,0.11408 -0.2763262,0.11408 -0.1622466,0 -0.2763266,-0.11408 -0.114079,-0.11408 -0.114079,-0.27632 0,-0.16225 0.114079,-0.27633 0.11408,-0.11661 0.2763266,-0.11661 z m 0.3549143,1.1484 v 1.87851 q 0,0.25097 0.058307,0.32196 0.058307,0.0684 0.2281592,0.0786 v 0.0913 h -1.2802265 v -0.0913 q 0.157176,-0.005 0.233229,-0.0913 0.0507,-0.0583 0.0507,-0.30928 v -1.38417 q 0,-0.25097 -0.05831,-0.31942 -0.05831,-0.071 -0.225624,-0.0811 v -0.0938 z"
       style="-inkscape-font-specification:'Garamond Bold'"
       id="path1183" />
    <path
       d="m -7.3095927,497.87357 q -0.1546412,0.16225 -0.2890017,0.22816 -0.1774571,0.0913 -0.3701249,0.0913 -0.446178,0 -0.7047585,-0.39801 -0.2053433,-0.31689 -0.2053433,-0.75799 0,-0.36759 0.1546413,-0.68955 0.1571763,-0.3245 0.4284323,-0.49435 0.273791,-0.17238 0.5780033,-0.17238 0.2028082,0 0.3599846,0.0684 0.1597114,0.0685 0.273791,0.20788 l 0.3980111,-0.27632 h 0.086193 v 3.07 q 0,0.23323 0.040562,0.29154 0.065913,0.0938 0.2661858,0.0963 v 0.0938 h -1.3689553 v -0.0938 q 0.1571763,0 0.2281592,-0.0355 0.070983,-0.0355 0.096334,-0.0938 0.027886,-0.0583 0.027886,-0.2383 z m 0,-0.2307 v -0.97601 q 0,-0.40815 -0.045632,-0.53998 -0.043097,-0.13182 -0.1622466,-0.22816 -0.060842,-0.0482 -0.1546412,-0.0482 -0.1926678,0 -0.2991421,0.16985 -0.1673168,0.26111 -0.1673168,0.97094 0,0.54505 0.1445009,0.7656 0.098869,0.14958 0.2560453,0.14958 0.091264,0 0.2053433,-0.0634 0.1166147,-0.0634 0.223089,-0.20028 z"
       style="-inkscape-font-specification:'Garamond Bold'"
       id="path1185" />
    <path
       d="m -3.7249578,495.75169 v 1.85569 q 0,0.27126 0.050702,0.33971 0.050702,0.0659 0.2053433,0.0837 v 0.0913 h -0.965874 v -0.31689 q -0.1698519,0.20281 -0.3397037,0.29661 -0.1698519,0.0913 -0.3802654,0.0913 -0.2002731,0 -0.3574494,-0.12168 -0.1546413,-0.12422 -0.2078784,-0.289 -0.053237,-0.16479 -0.053237,-0.57547 v -0.94053 q 0,-0.26872 -0.050702,-0.33463 -0.048167,-0.0659 -0.2053433,-0.0862 v -0.0938 h 0.965874 v 1.61993 q 0,0.25351 0.022816,0.32703 0.025351,0.0735 0.076053,0.11154 0.053237,0.038 0.1216849,0.038 0.091264,0 0.1647817,-0.0482 0.1014041,-0.0659 0.2433698,-0.26618 v -1.26756 q 0,-0.26872 -0.050702,-0.33463 -0.048167,-0.0659 -0.2053433,-0.0862 v -0.0938 z"
       style="-inkscape-font-specification:'Garamond Bold'"
       id="path1187" />
    <path
       d="M -1.1188725,496.85192 H -2.41938 q 0.022816,0.47153 0.2509751,0.74532 0.1749221,0.21042 0.420827,0.21042 0.1521061,0 0.2763262,-0.0837 0.12422,-0.0862 0.2661857,-0.30675 l 0.086194,0.0558 q -0.1926678,0.39294 -0.4258972,0.55773 -0.2332294,0.16224 -0.5399768,0.16224 -0.5273013,0 -0.7985573,-0.40561 -0.2180188,-0.32703 -0.2180188,-0.81124 0,-0.59321 0.3194229,-0.94306 0.321958,-0.35237 0.7529254,-0.35237 0.3599846,0 0.6236352,0.2966 0.2661858,0.29407 0.2864666,0.87461 z m -0.6236352,-0.16985 q 0,-0.40815 -0.045632,-0.56026 -0.043097,-0.1521 -0.1368956,-0.23069 -0.053237,-0.0456 -0.1419657,-0.0456 -0.1318253,0 -0.2154837,0.12929 -0.1495711,0.22562 -0.1495711,0.61856 v 0.0887 z"
       style="-inkscape-font-specification:'Garamond Bold'"
       id="path1189" />
    <path
       d="m 0.67597903,495.68578 0.0380265,0.80869 h -0.0861935 q -0.15464125,-0.35998 -0.32195801,-0.49181 -0.16478166,-0.13182 -0.32956332,-0.13182 -0.1039392,0 -0.17745717,0.071 -0.073518,0.0684 -0.073518,0.15971 0,0.0684 0.050702,0.13183 0.0811233,0.10394 0.45378333,0.35745 0.37266006,0.25097 0.48927477,0.42843 0.11914982,0.17492 0.11914982,0.39294 0,0.19774 -0.098869,0.38787 -0.098869,0.19013 -0.27886126,0.29154 -0.17999228,0.1014 -0.39801109,0.1014 -0.16985186,0 -0.45378333,-0.10647 -0.0760531,-0.0279 -0.1039392,-0.0279 -0.0836584,0 -0.13943063,0.12676 h -0.0836584 l -0.0405616,-0.8518 h 0.0861935 q 0.11407961,0.33464 0.3118176,0.50195 0.20027309,0.16732 0.37773026,0.16732 0.12168492,0 0.19773799,-0.0735 0.0785882,-0.0761 0.0785882,-0.18253 0,-0.12168 -0.0760531,-0.21041 -0.0760531,-0.0887 -0.33970372,-0.26872 -0.38787067,-0.26872 -0.50195028,-0.41069 -0.16731676,-0.20788 -0.16731676,-0.45885 0,-0.27379 0.18759758,-0.49435 0.19013268,-0.22308 0.54758212,-0.22308 0.19266779,0 0.37266006,0.0938 0.0684478,0.038 0.1115445,0.038 0.0456318,0 0.073518,-0.0177 0.0278861,-0.0203 0.0887286,-0.10901 z"
       style="-inkscape-font-specification:'Garamond Bold'"
       id="path1191" />
  </g>
  <path
     d="M-28.329 441.354c-1.446 3.835-4.924 5.791-1.64 9.034.952.602 1.833.956 3.056 1.438-1.666-.466-6.627-.092-5.147-2.854-.781.504-1.342 1.147-.989 1.955-1.791.61-2.813.313-1.91-1.483-.32-.013-.665.3-.809.54-.624 1.135.12 1.97.921 2.607 0 0-.656-.045-.966.044-.438.127-.893.329-1.191.675-.273.316-.45 1.168-.45 1.168l-.112.9c.703-.422 1.603-.615 2.36-.463.966.198 1.85.568 2.909.138-10.294 8.103-4.53 10.544-1.147 16.859.087.38.096.783-.066 1.137-.2.436-.56.833-1.013.677-.763-.457-1.137-1.366-2.157-.466-.011.01-.02.023-.03.034.654-.906 1.295-2.258 1.257-3.06-.181-3.796-4.538-2.402-2.161.158.419-1.991 1.197-.437 1.137.493-.06.93-.242 2.419-.242 2.419-.987 1.379-.393 2.469.938 3.058 1.098.422 2.136.455 3.024-.19-2.1 2.346-1.918 3.618-.53 4.673.02.04 1.446.755.63 1.99-.204.307-.618.42-1.046.314.353.33.913.518 1.422.357.644-.188 1.528-2.295 1.174-2.908-1.36-2.354.8-5.63.27-9.045-.492-1.96-2.413-3.531-3.762-4.213 1.797-.513 2.498-.97 3.214-1.962.217-.378.346-.808.426-1.236-.047-2.045-1.451-6.247 1.127-4.132-.185-2.236-3.136-1.688-2.408.828.196.676.438 1.262.562 1.843-1.85-1.002-3.006.058-3.282.733-1.135-.59-.444-2.047.068-2.755 1.105-1.122 1.173.266 2.338-.135-1.12-1.051-.88-2.052.584-3.08.7-.521 1.432-.869 1.887-.283.585.753 1.536 1.193 2.405.79-1.396-1.307-.398-2.449.63-1.405.413.76 1.07 1.283 1.933.854-2.895-1.826 2.408-4.483 5.171-6.75-.705-1.254-1.112-2.532-1.414-3.894-2.589 2.883-5.206 2.862-6.589 1.317-.09-.876 1.106-.648 1.46-.337.616-.825.34-1.521-.494-1.73 1.419-.766 1.98-2.668 1.304-3.888.307 1.628-2.432 4.072-1.798 1.37.196-.926-.152-1.779-.854-2.134zm-.308 2.804c.095.006.179.04.242.116.158.19-.102.546-.314.673-.582.348-.973.585-1.16.753-.19.17-.645.797-.553 1.936.003.046-.252-.433-.241-.67.042-.881.449-1.832 1.128-2.395.226-.189.613-.431.898-.413zm-4.807 12.655c-3.444 4.498-4.274 6.393-3.47 8.378-2.403-3.042 2.04-7.654 3.47-8.378zm-.8 11.591c2.42.02 3.797 3.902 3.07 5.696-.267-3.347-1.512-4.96-3.07-5.696zm.932 9.19c-.288.855-.06 1.422.053 1.588.112.165.366.42.744.799.138.138.27.46.111.575-.25.183-.632-.196-.815-.445-.412-.562-.542-1.367-.405-2.05.037-.183.324-.501.312-.466z"
     style="fill:#fff;fill-opacity:1;stroke:none;stroke-width:.177984px;stroke-linecap:butt;stroke-linejoin:miter;stroke-opacity:1"
     transform="translate(67.733 -431.527)"
     id="path976" />
  <path
     d="M-28.023 459.887h22.012s-1.398 5.917-1.394 10.837c.004 3.97 1.412 6.723 1.394 9.6-.017 2.701-7.325 2.732-10.076 2.725-.65-.001-.922.587-.922.587s-.262-.593-.959-.6c-2.809-.026-10.031-.02-10.055-2.712-.02-2.239 1.228-5.461 1.232-9.568.005-5.052-1.232-10.87-1.232-10.87z"
     style="fill:none;fill-opacity:1;fill-rule:evenodd;stroke:#fff;stroke-width:.973101;stroke-linejoin:miter;stroke-miterlimit:4;stroke-dasharray:none;stroke-opacity:1;paint-order:markers stroke fill"
     transform="translate(67.733 -431.527)"
     id="path978" />
  <path
     d="m-338.524 37.562-37.174-19.043-29.47 29.599 6.624-41.24-37.257-18.88 41.268-6.445 6.444-41.268 18.881 37.257 41.24-6.624-29.6 29.47z"
     style="fill:#fff;fill-opacity:1;fill-rule:evenodd;stroke:none;stroke-width:.125;stroke-dashoffset:3.77697;paint-order:fill markers stroke"
     transform="matrix(.04261 .00677 -.00677 .04261 59.354 35.17)"
     id="path980" />
  <path
     d="M-20.526 481.407c.152-.1.47-.435.754-.794.425-.536.774-.867 1.096-1.04.047-.025-.009.054-.124.175a1.51 1.51 0 0 0-.269.38c-.073.195-.079.756-.008.8.029.017.213-.15.41-.37.423-.476.707-.643 1.022-.6.307.04.546.245.803.684.28.48.346.432.343-.252-.003-.46.007-.506.104-.506.183 0 .418.176.583.438.153.242.16.246.21.118.027-.072.036-.304.02-.514-.018-.217-.009-.382.021-.382.029 0 .15.039.267.086.234.093.323.206.471.592l.097.253.07-.233a.847.847 0 0 0-.187-.85c-.283-.321-.712-.444-1.076-.305-.102.039-.18.026-.301-.048-.148-.09-.358-.38-.3-.415.013-.008.327-.164.697-.348 2.543-1.26 3.51-2.704 3.506-5.241-.001-.801-.056-1.244-.283-2.299-.095-.44-.094-.497.005-1.342.154-1.315.055-1.995-.449-3.063-.324-.688-.383-1.06-.203-1.287a.526.526 0 0 1 .246-.176c.105-.02.1-.026-.032-.032l-.159-.007.102-.176c.056-.097.204-.265.329-.374l.226-.198-.198.04c-.519.103-1.07.488-1.28.892-.096.185-.1.186-.326.047-.401-.245-.884-.356-1.677-.385-.65-.024-.839-.01-1.272.093-.28.067-.649.2-.82.297l-.31.176-.115-.16c-.37-.515-.854-.862-1.365-.977l-.228-.05.336.325c.334.325.37.449.135.45-.098.001-.077.028.102.13.205.115.228.152.245.38.026.354-.069.627-.42 1.217-.537.9-.678 1.946-.411 3.035.15.611.128.68-.407 1.269-1.626 1.79-2.157 4.835-1.445 8.29.187.91.525 2.142.631 2.305.128.196.498.175.834-.047zm-.693-1.434c-.051-.062-.045-.155.026-.41.274-.975.605-1.604 1.694-3.214.884-1.308 1.238-1.954 1.466-2.676.18-.571.287-1.402.237-1.844l-.037-.33.156.018c.132.015.165.054.207.245.073.333.004 1.24-.132 1.726-.17.609-.487 1.234-1.053 2.07l-.913 1.354c-.558.83-1.054 1.85-1.21 2.49-.068.28-.149.542-.178.58-.071.094-.18.09-.263-.008zm3.58-.68c-.188-.162-.169-.188.28-.39l.325-.145v.233c0 .42-.297.57-.606.302zm.186-8.633c-.5-.129-1.108-.43-1.445-.719-1.038-.889-1.066-2.585-.059-3.595.565-.566 1.16-.627 1.77-.182.15.11.393.364.538.566l.266.368.141-.186c.563-.742 1.03-1.038 1.58-.998.423.03.724.221.995.63.352.529.448.882.45 1.652.003.645-.006.698-.172 1.047-.325.683-.976 1.175-1.872 1.417-.552.149-1.609.149-2.192 0zm1.208-.476c.33-.652.25-1.28-.166-1.28-.43 0-.53.599-.211 1.268l.185.388zm-1.299-1.264c.047-.017.155-.096.24-.176.406-.377-.036-.916-.75-.916-.318 0-.525.086-.726.301-.164.176-.131.309.134.541.275.242.799.36 1.102.25zm3.151-.079c.2-.058.453-.327.507-.539.066-.266-.308-.53-.75-.53-.476 0-.957.329-.997.682-.012.104.044.16.289.289.317.168.608.198.951.098z"
     style="fill:#fff;stroke-width:.0565985"
     transform="translate(67.733 -431.527)"
     id="path982" />
  <path
     d="M-20.404 452.014c.164.225.124.663.05 1.081 1.097 1.116 2.94 1.723 4.394 2.598.44-.15.825-.194 1.281-.09l1.519-1.984a5.97 5.97 0 0 1-.197-.42c-2.349.718-4.698-.652-7.047-1.185zm-.1 1.863c-1.011.447-3.32.583-3.859 1.09-.679 1.077-.656 2.15-.512 3.296 2.603.518 4.61 2.354 6.484 3.862.432-.495.8-1.05 1.287-1.494l2.24 1.748c.715-.567 1.397-1.18 2.21-1.605 3.127.577 4.33-.34 3.674-3.14-.257-.471-.455-.995-.748-1.432l-3.006-1.816a3.578 3.578 0 0 1-.148-.243l.013.041-1.27 1.636c1.05.977.888 2.791-.569 3.2-1.448.408-2.494-1.072-1.859-2.63-1.31-.84-2.62-1.686-3.938-2.513zm5.444 2.32c-.54.01-.972.508-.972 1.119 0 .618.443 1.119.989 1.119s.99-.501.99-1.12c0-.617-.444-1.118-.99-1.118h-.017z"
     style="fill:#fff;fill-opacity:1;fill-rule:evenodd;stroke:none;stroke-width:2.96142;stroke-linejoin:miter;stroke-miterlimit:4;stroke-dasharray:none;stroke-opacity:1;paint-order:markers stroke fill"
     transform="translate(67.733 -431.527)"
     id="path984" />
  <path
     d="M-22.708 441.962a13.374 13.374 0 0 0-1.632 2.937l.843.494c.391-.969.895-1.873 1.49-2.678zm-.27.992.296.317a5.15 5.15 0 0 0-.628 1.13l-.355-.208c.18-.448.412-.866.688-1.239zM-20.152 439.75a11.02 11.02 0 0 0-2.39 2.05l.644.824a10.072 10.072 0 0 1 2.181-1.872zm-.529.778.2.46c-.364.228-.702.519-1 .858l-.296-.378c.327-.372.697-.69 1.096-.94zM-13.653 439.087l-.307 1.068c.845.353 1.65.847 2.384 1.464l.536-.926a10.129 10.129 0 0 0-2.613-1.606zm.568.624c.47.196.918.471 1.326.815l-.272.47a4.691 4.691 0 0 0-1.21-.743zM-17.069 438.712a9.268 9.268 0 0 0-2.84.893l.36 1.044a8.453 8.453 0 0 1 2.59-.814zm-.624.443.059.61a4.588 4.588 0 0 0-1.405.441l-.195-.567a5.029 5.029 0 0 1 1.54-.484zM-16.433 438.646c-.122 0-.245.001-.367.006l.026 1.13a8.258 8.258 0 0 1 2.662.344l.227-1.095a9.037 9.037 0 0 0-2.548-.384zm.504.343c.461.003.922.071 1.37.206l-.122.589a4.439 4.439 0 0 0-1.43-.185l-.015-.608c.066-.003.132-.003.197-.003z"
     style="color:#000;font-style:normal;font-variant:normal;font-weight:400;font-stretch:normal;font-size:medium;line-height:normal;font-family:sans-serif;font-variant-ligatures:normal;font-variant-position:normal;font-variant-caps:normal;font-variant-numeric:normal;font-variant-alternates:normal;font-variant-east-asian:normal;font-feature-settings:normal;font-variation-settings:normal;text-indent:0;text-align:start;text-decoration:none;text-decoration-line:none;text-decoration-style:solid;text-decoration-color:#000;letter-spacing:normal;word-spacing:normal;text-transform:none;writing-mode:lr-tb;direction:ltr;text-orientation:mixed;dominant-baseline:auto;baseline-shift:baseline;text-anchor:start;white-space:normal;shape-padding:0;shape-margin:0;inline-size:0;clip-rule:nonzero;display:inline;overflow:visible;visibility:visible;isolation:auto;mix-blend-mode:normal;color-interpolation:sRGB;color-interpolation-filters:linearRGB;solid-color:#000;solid-opacity:1;fill:#fff;fill-opacity:1;fill-rule:evenodd;stroke:none;stroke-width:.293967;stroke-linecap:butt;stroke-linejoin:miter;stroke-miterlimit:4;stroke-dasharray:none;stroke-dashoffset:.999323;stroke-opacity:1;paint-order:markers stroke fill;color-rendering:auto;image-rendering:auto;shape-rendering:auto;text-rendering:auto;enable-background:accumulate;stop-color:#000"
     transform="translate(67.733 -431.527)"
     id="path986" />
  <path
     d="m-338.524 37.562-37.174-19.043-29.47 29.599 6.624-41.24-37.257-18.88 41.268-6.445 6.444-41.268 18.881 37.257 41.24-6.624-29.6 29.47z"
     style="fill:#fff;fill-opacity:1;fill-rule:evenodd;stroke:none;stroke-width:.125;stroke-dashoffset:3.77697;paint-order:fill markers stroke"
     transform="matrix(.04261 .00677 -.00677 .04261 74.343 35.17)"
     id="path988" />
  <path
     d="M-5.335 441.354c-.703.355-1.05 1.208-.854 2.134.634 2.702-2.105.258-1.798-1.37-.676 1.22-.115 3.121 1.304 3.888-.834.209-1.11.905-.495 1.73.354-.31 1.552-.54 1.46.337-1.382 1.545-4 1.566-6.588-1.317-.303 1.361-.71 2.64-1.414 3.894 2.763 2.267 8.066 4.924 5.171 6.75.863.43 1.52-.093 1.933-.854 1.028-1.044 2.026.098.63 1.405.87.403 1.82-.037 2.405-.79.455-.586 1.187-.238 1.887.284 1.464 1.027 1.704 2.028.584 3.079 1.165.401 1.233-.987 2.337.135.512.708 1.204 2.166.07 2.755-.277-.675-1.432-1.735-3.283-.733.123-.581.366-1.167.561-1.843.729-2.516-2.222-3.064-2.407-.828 2.578-2.115 1.174 2.087 1.126 4.132.08.428.21.858.427 1.236.715.993 1.417 1.449 3.214 1.962-1.35.682-3.27 2.253-3.762 4.212-.53 3.416 1.63 6.691.27 9.046-.355.613.53 2.72 1.173 2.908.51.161 1.07-.028 1.422-.357-.427.105-.842-.007-1.045-.315-.817-1.234.61-1.95.63-1.989 1.387-1.055 1.57-2.327-.53-4.674.888.646 1.926.613 3.024.19 1.331-.588 1.925-1.678.938-3.057 0 0-.183-1.49-.242-2.42-.06-.93.718-2.483 1.137-.492 2.377-2.56-1.98-3.954-2.161-.159-.039.803.603 2.155 1.258 3.061l-.03-.034c-1.02-.9-1.396.01-2.158.465-.454.157-.813-.24-1.013-.676-.162-.355-.153-.757-.066-1.137 3.384-6.315 9.147-8.757-1.147-16.86 1.06.43 1.943.061 2.91-.137.755-.152 1.656.041 2.359.462l-.113-.899s-.177-.852-.45-1.169c-.297-.345-.752-.547-1.19-.674-.31-.089-.966-.044-.966-.044.801-.638 1.545-1.473.92-2.608-.143-.24-.488-.552-.808-.539.902 1.796-.119 2.092-1.91 1.483.353-.808-.208-1.451-.99-1.955 1.48 2.762-3.48 2.388-5.146 2.854 1.223-.482 2.103-.836 3.057-1.438 3.283-3.243-.196-5.2-1.641-9.034zm.308 2.804c.285-.018.672.224.898.413.68.563 1.086 1.514 1.128 2.395.011.237-.244.716-.241.67.092-1.14-.363-1.766-.553-1.936-.188-.168-.578-.405-1.16-.753-.212-.127-.472-.483-.314-.673a.327.327 0 0 1 .242-.116zm4.807 12.655c1.43.724 5.873 5.336 3.469 8.378.804-1.985-.025-3.88-3.47-8.378zm.8 11.591c-1.558.736-2.803 2.349-3.07 5.696-.727-1.794.65-5.676 3.07-5.696zm-.933 9.19c-.01-.034.276.284.313.467.136.683.007 1.488-.405 2.05-.183.25-.565.628-.816.445-.157-.115-.026-.437.112-.575.378-.378.632-.634.743-.799.113-.166.342-.733.053-1.587z"
     style="fill:#fff;fill-opacity:1;stroke:none;stroke-width:.177984px;stroke-linecap:butt;stroke-linejoin:miter;stroke-opacity:1"
     transform="translate(67.733 -431.527)"
     id="path990" />
  <path
     d="M-17.124 441.352c-2.12.04-4.631 1.754-4.35 5.068 0 .992.198 1.934.652 3.088.438 1.113.656 1.407 1.348 1.818 1.29.766 2.737 1.272 4.404 1.54.448.071.732.056.953-.05.226-.11.315-.247.5-.766l.145-.41-.282-.045c-1.339-.21-2.793-.676-3.9-1.251-.963-.501-1.612-.985-2.6-1.936a57.926 57.926 0 0 0-.759-.723 1.239 1.239 0 0 1-.236-.333c-.084-.179-.097-.254-.095-.558.002-.306.013-.374.1-.54.135-.251.367-.484.662-.706.287.098 1.245.729 1.454.868.568.38 1.079.564 1.77.637.61.065 2.003-.022 3.255-.204.582-.084 1.715-.278 1.74-.298.015-.01-.06-.516-.09-.615-.012-.042-.056-.065-.123-.065a.355.355 0 0 1-.191-.07c-.085-.068-.085-.072-.025-.2.034-.07.096-.14.138-.153.097-.031.097-.029-.033-.395-.757-1.801-2.541-3.713-4.437-3.7zm3.395 2.605.012.013.011.014-.016-.019-.007-.008zm-.49 1.509c.544 0 .644.034.644.222 0 .18-.096.21-.757.233a24.152 24.152 0 0 0-1.92.157c-.159.023-.202.002-.202-.097 0-.045.076-.092.26-.16a5.611 5.611 0 0 1 1.974-.355zm-6.27.595a.591.591 0 0 0-.22.064c-.242.118-.343.315-.339.67.003.363.103.572.382.808.113.096.43.399.705.673.817.817 1.538 1.345 2.52 1.844 1.044.53 2.167.9 3.518 1.156.263.05.488.091.5.093.013.001.135-.325.272-.726.466-1.368.999-2.575 1.53-3.468a5.4 5.4 0 0 0 .224-.397c0-.055-.477-.007-1.081.106-1.418.268-2.461.404-3.577.47-.335.019-.639.025-.918.016-1.045-.034-1.752-.281-2.546-.844-.494-.35-.748-.482-.97-.465zm.032.438c.302 0 .45.382.225.576-.134.115-.286.113-.428-.007-.227-.19-.092-.569.203-.569zm4.556 1.627c.13-.01.259.084.259.223 0 .133-.352 1.352-.411 1.423-.056.068-.272.063-.343-.008a.255.255 0 0 1-.058-.158c0-.184.357-1.383.427-1.434a.24.24 0 0 1 .126-.046zm1.251.002a.236.236 0 0 1 .154.033c.172.093.168.14-.117 1.083-.188.62-.295.917-.353.974-.092.093-.143.1-.252.04-.094-.054-.128-.105-.128-.196-.002-.153.493-1.774.565-1.856a.223.223 0 0 1 .131-.078zm-2.46.041a.25.25 0 0 1 .212.155c.026.068.006.178-.078.452-.062.2-.132.381-.155.405-.12.117-.335.075-.393-.076-.026-.068-.01-.176.058-.417.05-.179.11-.362.134-.409.042-.084.133-.119.222-.11zm3.628.14c.07.001.14.023.178.067.034.037.061.11.061.161 0 .171-.579 1.997-.65 2.048-.14.104-.383 0-.383-.164 0-.12.563-1.984.62-2.049.036-.042.105-.063.174-.062zm-6.514 3.068c-.14.21-.28.42-.408.637.278.287.53.407.867.622.75.423 1.976.875 3.212 1.184.561.14 1.766.394 2.086.44a.289.289 0 0 0 .157-.026c.114-.066.44-.496.585-.77l.14-.265-.152-.154-.15-.155-.152.104c-.362.248-.752.28-1.624.133-1.578-.267-3.065-.81-4.24-1.548z"
     style="fill:#fff;stroke:none;stroke-width:.117722;stroke-miterlimit:4;stroke-dasharray:none;stroke-opacity:1"
     transform="translate(67.733 -431.527)"
     id="path992" />
</svg>
