<svg xmlns="http://www.w3.org/2000/svg" width="384.761" height="282.798" viewBox="0 0 101.801 74.824"><path fill="none" d="M-171.714 430.741h101.801v74.824h-101.801z" style="fill:#fff;fill-opacity:0;fill-rule:evenodd;stroke-width:.77956;stroke-dashoffset:3.77697;paint-order:markers fill stroke" transform="translate(171.714 -430.74)"/><text xml:space="preserve" x="-38.078" y="492.836" style="font-style:normal;font-variant:normal;font-weight:700;font-stretch:normal;font-size:10.3838px;line-height:.919824px;font-family:Garamond;-inkscape-font-specification:&quot;Garamond, Bold&quot;;font-variant-ligatures:normal;font-variant-caps:normal;font-variant-numeric:normal;font-variant-east-asian:normal;letter-spacing:1.46022px;word-spacing:0;writing-mode:lr-tb;fill:#fff;stroke-width:.121685" transform="translate(67.733 -431.527)"><tspan x="-38.078" y="492.836" style="font-style:normal;font-variant:normal;font-weight:700;font-stretch:normal;font-size:10.3838px;font-family:Garamond;-inkscape-font-specification:&quot;Garamond, Bold&quot;;font-variant-ligatures:normal;font-variant-caps:normal;font-variant-numeric:normal;font-variant-east-asian:normal;fill:#fff;stroke-width:.121685">LEDUC</tspan></text><text xml:space="preserve" x="-33.302" y="498.122" style="font-style:normal;font-variant:normal;font-weight:700;font-stretch:normal;font-size:5.19189px;line-height:.459911px;font-family:Garamond;-inkscape-font-specification:&quot;Garamond, Bold&quot;;font-variant-ligatures:normal;font-variant-caps:normal;font-variant-numeric:normal;font-variant-east-asian:normal;letter-spacing:0;word-spacing:0;writing-mode:lr-tb;fill:#fff;stroke-width:.121685" transform="translate(67.733 -431.527)"><tspan x="-33.302" y="498.122" style="font-style:normal;font-variant:normal;font-weight:700;font-stretch:normal;font-size:5.19189px;font-family:Garamond;-inkscape-font-specification:&quot;Garamond Bold&quot;;font-variant-ligatures:normal;font-variant-caps:normal;font-variant-numeric:normal;font-variant-east-asian:normal;fill:#fff;stroke-width:.121685">Art &amp; Antiques</tspan></text><path d="M-28.329 441.354c-1.446 3.835-4.924 5.791-1.64 9.034.952.602 1.833.956 3.056 1.438-1.666-.466-6.627-.092-5.147-2.854-.781.504-1.342 1.147-.989 1.955-1.791.61-2.813.313-1.91-1.483-.32-.013-.665.3-.809.54-.624 1.135.12 1.97.921 2.607 0 0-.656-.045-.966.044-.438.127-.893.329-1.191.675-.273.316-.45 1.168-.45 1.168l-.112.9c.703-.422 1.603-.615 2.36-.463.966.198 1.85.568 2.909.138-10.294 8.103-4.53 10.544-1.147 16.859.087.38.096.783-.066 1.137-.2.436-.56.833-1.013.677-.763-.457-1.137-1.366-2.157-.466-.011.01-.02.023-.03.034.654-.906 1.295-2.258 1.257-3.06-.181-3.796-4.538-2.402-2.161.158.419-1.991 1.197-.437 1.137.493-.06.93-.242 2.419-.242 2.419-.987 1.379-.393 2.469.938 3.058 1.098.422 2.136.455 3.024-.19-2.1 2.346-1.918 3.618-.53 4.673.02.04 1.446.755.63 1.99-.204.307-.618.42-1.046.314.353.33.913.518 1.422.357.644-.188 1.528-2.295 1.174-2.908-1.36-2.354.8-5.63.27-9.045-.492-1.96-2.413-3.531-3.762-4.213 1.797-.513 2.498-.97 3.214-1.962.217-.378.346-.808.426-1.236-.047-2.045-1.451-6.247 1.127-4.132-.185-2.236-3.136-1.688-2.408.828.196.676.438 1.262.562 1.843-1.85-1.002-3.006.058-3.282.733-1.135-.59-.444-2.047.068-2.755 1.105-1.122 1.173.266 2.338-.135-1.12-1.051-.88-2.052.584-3.08.7-.521 1.432-.869 1.887-.283.585.753 1.536 1.193 2.405.79-1.396-1.307-.398-2.449.63-1.405.413.76 1.07 1.283 1.933.854-2.895-1.826 2.408-4.483 5.171-6.75-.705-1.254-1.112-2.532-1.414-3.894-2.589 2.883-5.206 2.862-6.589 1.317-.09-.876 1.106-.648 1.46-.337.616-.825.34-1.521-.494-1.73 1.419-.766 1.98-2.668 1.304-3.888.307 1.628-2.432 4.072-1.798 1.37.196-.926-.152-1.779-.854-2.134zm-.308 2.804c.095.006.179.04.242.116.158.19-.102.546-.314.673-.582.348-.973.585-1.16.753-.19.17-.645.797-.553 1.936.003.046-.252-.433-.241-.67.042-.881.449-1.832 1.128-2.395.226-.189.613-.431.898-.413zm-4.807 12.655c-3.444 4.498-4.274 6.393-3.47 8.378-2.403-3.042 2.04-7.654 3.47-8.378zm-.8 11.591c2.42.02 3.797 3.902 3.07 5.696-.267-3.347-1.512-4.96-3.07-5.696zm.932 9.19c-.288.855-.06 1.422.053 1.588.112.165.366.42.744.799.138.138.27.46.111.575-.25.183-.632-.196-.815-.445-.412-.562-.542-1.367-.405-2.05.037-.183.324-.501.312-.466z" style="fill:#fff;fill-opacity:1;stroke:none;stroke-width:.177984px;stroke-linecap:butt;stroke-linejoin:miter;stroke-opacity:1" transform="translate(67.733 -431.527)"/><path d="M-28.023 459.887h22.012s-1.398 5.917-1.394 10.837c.004 3.97 1.412 6.723 1.394 9.6-.017 2.701-7.325 2.732-10.076 2.725-.65-.001-.922.587-.922.587s-.262-.593-.959-.6c-2.809-.026-10.031-.02-10.055-2.712-.02-2.239 1.228-5.461 1.232-9.568.005-5.052-1.232-10.87-1.232-10.87z" style="fill:none;fill-opacity:1;fill-rule:evenodd;stroke:#fff;stroke-width:.973101;stroke-linejoin:miter;stroke-miterlimit:4;stroke-dasharray:none;stroke-opacity:1;paint-order:markers stroke fill" transform="translate(67.733 -431.527)"/><path d="m-338.524 37.562-37.174-19.043-29.47 29.599 6.624-41.24-37.257-18.88 41.268-6.445 6.444-41.268 18.881 37.257 41.24-6.624-29.6 29.47z" style="fill:#fff;fill-opacity:1;fill-rule:evenodd;stroke:none;stroke-width:.125;stroke-dashoffset:3.77697;paint-order:fill markers stroke" transform="matrix(.04261 .00677 -.00677 .04261 59.354 35.17)"/><path d="M-20.526 481.407c.152-.1.47-.435.754-.794.425-.536.774-.867 1.096-1.04.047-.025-.009.054-.124.175a1.51 1.51 0 0 0-.269.38c-.073.195-.079.756-.008.8.029.017.213-.15.41-.37.423-.476.707-.643 1.022-.6.307.04.546.245.803.684.28.48.346.432.343-.252-.003-.46.007-.506.104-.506.183 0 .418.176.583.438.153.242.16.246.21.118.027-.072.036-.304.02-.514-.018-.217-.009-.382.021-.382.029 0 .15.039.267.086.234.093.323.206.471.592l.097.253.07-.233a.847.847 0 0 0-.187-.85c-.283-.321-.712-.444-1.076-.305-.102.039-.18.026-.301-.048-.148-.09-.358-.38-.3-.415.013-.008.327-.164.697-.348 2.543-1.26 3.51-2.704 3.506-5.241-.001-.801-.056-1.244-.283-2.299-.095-.44-.094-.497.005-1.342.154-1.315.055-1.995-.449-3.063-.324-.688-.383-1.06-.203-1.287a.526.526 0 0 1 .246-.176c.105-.02.1-.026-.032-.032l-.159-.007.102-.176c.056-.097.204-.265.329-.374l.226-.198-.198.04c-.519.103-1.07.488-1.28.892-.096.185-.1.186-.326.047-.401-.245-.884-.356-1.677-.385-.65-.024-.839-.01-1.272.093-.28.067-.649.2-.82.297l-.31.176-.115-.16c-.37-.515-.854-.862-1.365-.977l-.228-.05.336.325c.334.325.37.449.135.45-.098.001-.077.028.102.13.205.115.228.152.245.38.026.354-.069.627-.42 1.217-.537.9-.678 1.946-.411 3.035.15.611.128.68-.407 1.269-1.626 1.79-2.157 4.835-1.445 8.29.187.91.525 2.142.631 2.305.128.196.498.175.834-.047zm-.693-1.434c-.051-.062-.045-.155.026-.41.274-.975.605-1.604 1.694-3.214.884-1.308 1.238-1.954 1.466-2.676.18-.571.287-1.402.237-1.844l-.037-.33.156.018c.132.015.165.054.207.245.073.333.004 1.24-.132 1.726-.17.609-.487 1.234-1.053 2.07l-.913 1.354c-.558.83-1.054 1.85-1.21 2.49-.068.28-.149.542-.178.58-.071.094-.18.09-.263-.008zm3.58-.68c-.188-.162-.169-.188.28-.39l.325-.145v.233c0 .42-.297.57-.606.302zm.186-8.633c-.5-.129-1.108-.43-1.445-.719-1.038-.889-1.066-2.585-.059-3.595.565-.566 1.16-.627 1.77-.182.15.11.393.364.538.566l.266.368.141-.186c.563-.742 1.03-1.038 1.58-.998.423.03.724.221.995.63.352.529.448.882.45 1.652.003.645-.006.698-.172 1.047-.325.683-.976 1.175-1.872 1.417-.552.149-1.609.149-2.192 0zm1.208-.476c.33-.652.25-1.28-.166-1.28-.43 0-.53.599-.211 1.268l.185.388zm-1.299-1.264c.047-.017.155-.096.24-.176.406-.377-.036-.916-.75-.916-.318 0-.525.086-.726.301-.164.176-.131.309.134.541.275.242.799.36 1.102.25zm3.151-.079c.2-.058.453-.327.507-.539.066-.266-.308-.53-.75-.53-.476 0-.957.329-.997.682-.012.104.044.16.289.289.317.168.608.198.951.098z" style="fill:#fff;stroke-width:.0565985" transform="translate(67.733 -431.527)"/><path d="M-20.404 452.014c.164.225.124.663.05 1.081 1.097 1.116 2.94 1.723 4.394 2.598.44-.15.825-.194 1.281-.09l1.519-1.984a5.97 5.97 0 0 1-.197-.42c-2.349.718-4.698-.652-7.047-1.185zm-.1 1.863c-1.011.447-3.32.583-3.859 1.09-.679 1.077-.656 2.15-.512 3.296 2.603.518 4.61 2.354 6.484 3.862.432-.495.8-1.05 1.287-1.494l2.24 1.748c.715-.567 1.397-1.18 2.21-1.605 3.127.577 4.33-.34 3.674-3.14-.257-.471-.455-.995-.748-1.432l-3.006-1.816a3.578 3.578 0 0 1-.148-.243l.013.041-1.27 1.636c1.05.977.888 2.791-.569 3.2-1.448.408-2.494-1.072-1.859-2.63-1.31-.84-2.62-1.686-3.938-2.513zm5.444 2.32c-.54.01-.972.508-.972 1.119 0 .618.443 1.119.989 1.119s.99-.501.99-1.12c0-.617-.444-1.118-.99-1.118h-.017z" style="fill:#fff;fill-opacity:1;fill-rule:evenodd;stroke:none;stroke-width:2.96142;stroke-linejoin:miter;stroke-miterlimit:4;stroke-dasharray:none;stroke-opacity:1;paint-order:markers stroke fill" transform="translate(67.733 -431.527)"/><path d="M-22.708 441.962a13.374 13.374 0 0 0-1.632 2.937l.843.494c.391-.969.895-1.873 1.49-2.678zm-.27.992.296.317a5.15 5.15 0 0 0-.628 1.13l-.355-.208c.18-.448.412-.866.688-1.239zM-20.152 439.75a11.02 11.02 0 0 0-2.39 2.05l.644.824a10.072 10.072 0 0 1 2.181-1.872zm-.529.778.2.46c-.364.228-.702.519-1 .858l-.296-.378c.327-.372.697-.69 1.096-.94zM-13.653 439.087l-.307 1.068c.845.353 1.65.847 2.384 1.464l.536-.926a10.129 10.129 0 0 0-2.613-1.606zm.568.624c.47.196.918.471 1.326.815l-.272.47a4.691 4.691 0 0 0-1.21-.743zM-17.069 438.712a9.268 9.268 0 0 0-2.84.893l.36 1.044a8.453 8.453 0 0 1 2.59-.814zm-.624.443.059.61a4.588 4.588 0 0 0-1.405.441l-.195-.567a5.029 5.029 0 0 1 1.54-.484zM-16.433 438.646c-.122 0-.245.001-.367.006l.026 1.13a8.258 8.258 0 0 1 2.662.344l.227-1.095a9.037 9.037 0 0 0-2.548-.384zm.504.343c.461.003.922.071 1.37.206l-.122.589a4.439 4.439 0 0 0-1.43-.185l-.015-.608c.066-.003.132-.003.197-.003z" style="color:#000;font-style:normal;font-variant:normal;font-weight:400;font-stretch:normal;font-size:medium;line-height:normal;font-family:sans-serif;font-variant-ligatures:normal;font-variant-position:normal;font-variant-caps:normal;font-variant-numeric:normal;font-variant-alternates:normal;font-variant-east-asian:normal;font-feature-settings:normal;font-variation-settings:normal;text-indent:0;text-align:start;text-decoration:none;text-decoration-line:none;text-decoration-style:solid;text-decoration-color:#000;letter-spacing:normal;word-spacing:normal;text-transform:none;writing-mode:lr-tb;direction:ltr;text-orientation:mixed;dominant-baseline:auto;baseline-shift:baseline;text-anchor:start;white-space:normal;shape-padding:0;shape-margin:0;inline-size:0;clip-rule:nonzero;display:inline;overflow:visible;visibility:visible;isolation:auto;mix-blend-mode:normal;color-interpolation:sRGB;color-interpolation-filters:linearRGB;solid-color:#000;solid-opacity:1;fill:#fff;fill-opacity:1;fill-rule:evenodd;stroke:none;stroke-width:.293967;stroke-linecap:butt;stroke-linejoin:miter;stroke-miterlimit:4;stroke-dasharray:none;stroke-dashoffset:.999323;stroke-opacity:1;paint-order:markers stroke fill;color-rendering:auto;image-rendering:auto;shape-rendering:auto;text-rendering:auto;enable-background:accumulate;stop-color:#000" transform="translate(67.733 -431.527)"/><path d="m-338.524 37.562-37.174-19.043-29.47 29.599 6.624-41.24-37.257-18.88 41.268-6.445 6.444-41.268 18.881 37.257 41.24-6.624-29.6 29.47z" style="fill:#fff;fill-opacity:1;fill-rule:evenodd;stroke:none;stroke-width:.125;stroke-dashoffset:3.77697;paint-order:fill markers stroke" transform="matrix(.04261 .00677 -.00677 .04261 74.343 35.17)"/><path d="M-5.335 441.354c-.703.355-1.05 1.208-.854 2.134.634 2.702-2.105.258-1.798-1.37-.676 1.22-.115 3.121 1.304 3.888-.834.209-1.11.905-.495 1.73.354-.31 1.552-.54 1.46.337-1.382 1.545-4 1.566-6.588-1.317-.303 1.361-.71 2.64-1.414 3.894 2.763 2.267 8.066 4.924 5.171 6.75.863.43 1.52-.093 1.933-.854 1.028-1.044 2.026.098.63 1.405.87.403 1.82-.037 2.405-.79.455-.586 1.187-.238 1.887.284 1.464 1.027 1.704 2.028.584 3.079 1.165.401 1.233-.987 2.337.135.512.708 1.204 2.166.07 2.755-.277-.675-1.432-1.735-3.283-.733.123-.581.366-1.167.561-1.843.729-2.516-2.222-3.064-2.407-.828 2.578-2.115 1.174 2.087 1.126 4.132.08.428.21.858.427 1.236.715.993 1.417 1.449 3.214 1.962-1.35.682-3.27 2.253-3.762 4.212-.53 3.416 1.63 6.691.27 9.046-.355.613.53 2.72 1.173 2.908.51.161 1.07-.028 1.422-.357-.427.105-.842-.007-1.045-.315-.817-1.234.61-1.95.63-1.989 1.387-1.055 1.57-2.327-.53-4.674.888.646 1.926.613 3.024.19 1.331-.588 1.925-1.678.938-3.057 0 0-.183-1.49-.242-2.42-.06-.93.718-2.483 1.137-.492 2.377-2.56-1.98-3.954-2.161-.159-.039.803.603 2.155 1.258 3.061l-.03-.034c-1.02-.9-1.396.01-2.158.465-.454.157-.813-.24-1.013-.676-.162-.355-.153-.757-.066-1.137 3.384-6.315 9.147-8.757-1.147-16.86 1.06.43 1.943.061 2.91-.137.755-.152 1.656.041 2.359.462l-.113-.899s-.177-.852-.45-1.169c-.297-.345-.752-.547-1.19-.674-.31-.089-.966-.044-.966-.044.801-.638 1.545-1.473.92-2.608-.143-.24-.488-.552-.808-.539.902 1.796-.119 2.092-1.91 1.483.353-.808-.208-1.451-.99-1.955 1.48 2.762-3.48 2.388-5.146 2.854 1.223-.482 2.103-.836 3.057-1.438 3.283-3.243-.196-5.2-1.641-9.034zm.308 2.804c.285-.018.672.224.898.413.68.563 1.086 1.514 1.128 2.395.011.237-.244.716-.241.67.092-1.14-.363-1.766-.553-1.936-.188-.168-.578-.405-1.16-.753-.212-.127-.472-.483-.314-.673a.327.327 0 0 1 .242-.116zm4.807 12.655c1.43.724 5.873 5.336 3.469 8.378.804-1.985-.025-3.88-3.47-8.378zm.8 11.591c-1.558.736-2.803 2.349-3.07 5.696-.727-1.794.65-5.676 3.07-5.696zm-.933 9.19c-.01-.034.276.284.313.467.136.683.007 1.488-.405 2.05-.183.25-.565.628-.816.445-.157-.115-.026-.437.112-.575.378-.378.632-.634.743-.799.113-.166.342-.733.053-1.587z" style="fill:#fff;fill-opacity:1;stroke:none;stroke-width:.177984px;stroke-linecap:butt;stroke-linejoin:miter;stroke-opacity:1" transform="translate(67.733 -431.527)"/><path d="M-17.124 441.352c-2.12.04-4.631 1.754-4.35 5.068 0 .992.198 1.934.652 3.088.438 1.113.656 1.407 1.348 1.818 1.29.766 2.737 1.272 4.404 1.54.448.071.732.056.953-.05.226-.11.315-.247.5-.766l.145-.41-.282-.045c-1.339-.21-2.793-.676-3.9-1.251-.963-.501-1.612-.985-2.6-1.936a57.926 57.926 0 0 0-.759-.723 1.239 1.239 0 0 1-.236-.333c-.084-.179-.097-.254-.095-.558.002-.306.013-.374.1-.54.135-.251.367-.484.662-.706.287.098 1.245.729 1.454.868.568.38 1.079.564 1.77.637.61.065 2.003-.022 3.255-.204.582-.084 1.715-.278 1.74-.298.015-.01-.06-.516-.09-.615-.012-.042-.056-.065-.123-.065a.355.355 0 0 1-.191-.07c-.085-.068-.085-.072-.025-.2.034-.07.096-.14.138-.153.097-.031.097-.029-.033-.395-.757-1.801-2.541-3.713-4.437-3.7zm3.395 2.605.012.013.011.014-.016-.019-.007-.008zm-.49 1.509c.544 0 .644.034.644.222 0 .18-.096.21-.757.233a24.152 24.152 0 0 0-1.92.157c-.159.023-.202.002-.202-.097 0-.045.076-.092.26-.16a5.611 5.611 0 0 1 1.974-.355zm-6.27.595a.591.591 0 0 0-.22.064c-.242.118-.343.315-.339.67.003.363.103.572.382.808.113.096.43.399.705.673.817.817 1.538 1.345 2.52 1.844 1.044.53 2.167.9 3.518 1.156.263.05.488.091.5.093.013.001.135-.325.272-.726.466-1.368.999-2.575 1.53-3.468a5.4 5.4 0 0 0 .224-.397c0-.055-.477-.007-1.081.106-1.418.268-2.461.404-3.577.47-.335.019-.639.025-.918.016-1.045-.034-1.752-.281-2.546-.844-.494-.35-.748-.482-.97-.465zm.032.438c.302 0 .45.382.225.576-.134.115-.286.113-.428-.007-.227-.19-.092-.569.203-.569zm4.556 1.627c.13-.01.259.084.259.223 0 .133-.352 1.352-.411 1.423-.056.068-.272.063-.343-.008a.255.255 0 0 1-.058-.158c0-.184.357-1.383.427-1.434a.24.24 0 0 1 .126-.046zm1.251.002a.236.236 0 0 1 .154.033c.172.093.168.14-.117 1.083-.188.62-.295.917-.353.974-.092.093-.143.1-.252.04-.094-.054-.128-.105-.128-.196-.002-.153.493-1.774.565-1.856a.223.223 0 0 1 .131-.078zm-2.46.041a.25.25 0 0 1 .212.155c.026.068.006.178-.078.452-.062.2-.132.381-.155.405-.12.117-.335.075-.393-.076-.026-.068-.01-.176.058-.417.05-.179.11-.362.134-.409.042-.084.133-.119.222-.11zm3.628.14c.07.001.14.023.178.067.034.037.061.11.061.161 0 .171-.579 1.997-.65 2.048-.14.104-.383 0-.383-.164 0-.12.563-1.984.62-2.049.036-.042.105-.063.174-.062zm-6.514 3.068c-.14.21-.28.42-.408.637.278.287.53.407.867.622.75.423 1.976.875 3.212 1.184.561.14 1.766.394 2.086.44a.289.289 0 0 0 .157-.026c.114-.066.44-.496.585-.77l.14-.265-.152-.154-.15-.155-.152.104c-.362.248-.752.28-1.624.133-1.578-.267-3.065-.81-4.24-1.548z" style="fill:#fff;stroke:none;stroke-width:.117722;stroke-miterlimit:4;stroke-dasharray:none;stroke-opacity:1" transform="translate(67.733 -431.527)"/></svg>