<svg xmlns="http://www.w3.org/2000/svg" width="384.761" height="282.798" viewBox="0 0 101.801 74.824"><path fill="none" d="M-171.714 430.741h101.801v74.824h-101.801z" style="fill:#fff;fill-opacity:0;fill-rule:evenodd;stroke-width:.77956;stroke-dashoffset:3.77697;paint-order:markers fill stroke" transform="translate(171.714 -430.74)"/><path fill="none" d="M-135.022 518.79h79.898v47.261h-79.898z" style="fill:#073763;fill-opacity:0;stroke:none;stroke-width:.163102;stroke-linejoin:round;stroke-opacity:1" transform="translate(171.714 -430.74)"/><path d="M320.993 64.6c-.466-.02-.689.018-.738.097-.277.446-.536 3.656-.303 3.738.91.32.914.22-.266 9.236-.627 4.807-1.195 8.83-1.262 8.941-.068.111-.326.148-.576.083-.548-.144-.679.28-.758 2.465l-.057 1.548 4.689.648c2.577.357 4.962.661 5.296.677.438.019.965-.332 1.874-1.252l1.264-1.28.448-3.228c.247-1.775.854-6.377 1.35-10.226l.901-7-.92-1.534a77.042 77.042 0 0 0-.985-1.624c-.042-.047-2.42-.4-5.297-.78-2.439-.323-3.888-.485-4.663-.51zm-11.772.134-5.108.671c-2.809.37-5.2.676-5.314.682-.114.003-.14.632-.05 1.393.285 2.497.36 2.704.999 2.704.319 0 .582.058.582.13 0 .07.49 3.884 1.087 8.474.597 4.589 1.11 8.56 1.141 8.825.042.343-.106.504-.513.561-.54.076-.561.147-.413 1.322.084.683.216 1.593.296 2.023.087.491.277.782.516.782 1.001 0 10.052-1.276 10.229-1.442.114-.104.602-.853 1.09-1.664l.885-1.473-1.337-10.173-1.338-10.172-1.376-1.321zm28.249 2.325c-.133 0-.478.676-.766 1.502-.288.827-.59 1.673-.67 1.88-.098.254.053.47.466.657l.61.278v7.054c0 6.816-.038 7.112-.575 8.72-1.054 3.05-1.027 3.006-1.656 2.767-.529-.201-.6-.111-1.209 1.525-.357.956-.647 1.842-.647 1.968 0 .126 1.055.626 2.344 1.112 1.29.485 2.498.86 2.687.833.19-.023.64-.874 1.016-1.909l.674-1.86-.58-.145-.578-.145.753-2.082c.726-2.007.925-2.283 5.515-7.656 4.086-4.782 4.85-5.568 5.383-5.53.566.041.683-.119 1.298-1.774l.675-1.82-2.779-1.008c-1.528-.554-2.809-.977-2.847-.94-.041.04-.388.9-.78 1.918-.679 1.762-.69 1.857-.254 1.995.25.08.457.25.457.38 0 .319-5.342 6.464-5.62 6.464-.133 0-.156-.905-.065-2.201.088-1.21.156-3.16.156-4.332 0-2.092 0-2.128.543-1.995.49.123.608-.043 1.223-1.696.376-1.008.63-1.884.568-1.947-.17-.17-5.059-2.013-5.34-2.013zm-29.218 2.096c.28 0 .46.02.488.063.19.31 2.456 17.585 2.322 17.718-.057.057-1.17.256-2.474.443-1.303.186-2.429.342-2.5.346-.198.012-2.486-17.77-2.31-17.945.239-.237 3.266-.62 4.474-.625zm16.229.1c.422.011 1.353.094 2.402.219l2.543.301-.122.746c-.068.41-.56 4.208-1.094 8.439-.534 4.23-1.024 7.936-1.088 8.233-.132.616-.686.654-3.532.24-1.549-.226-1.623-.266-1.623-.892 0-.845 2.15-17.143 2.278-17.272.038-.019.095-.019.24-.019zm-40.776 1.84c-.992.21-2.841 1.181-2.846 1.493 0 .199.977 5.271 2.18 11.273 2.234 11.158 2.225 11.079 1.312 11.398-.125.045.133.912.573 1.927.443 1.016.856 1.847.919 1.847.322 0 5.11-2.27 5.11-2.422 0-.187-1.41-3.395-1.556-3.542-.05-.047-.3.03-.562.17-.549.294-.767-.04-.767-1.167 0-.62.19-.756 2.569-1.817l2.567-1.146.556.695c.573.715.693 1.052.38 1.059-.099.003-.319.093-.493.202-.242.154-.12.612.537 2.061.467 1.025.937 1.827 1.045 1.782.107-.045 1.294-.55 2.635-1.124 2.741-1.172 2.597-.823 1.429-3.453-.543-1.22-.68-1.365-1.275-1.322-.613.044-1.196-.67-7.327-8.967-3.85-5.211-6.798-8.986-6.985-8.946zm71.057 3.2-.953 1.821c-.584 1.115-.85 1.86-.686 1.92.144.055.46.242.699.416.406.296.408.352.038.886-.216.314-.398.661-.398.773 0 .232.775.023 1.725-.458.528-.269 2.362-3.137 2.362-3.695 0-.074-.627-.477-1.392-.898zm-83.805 3.583c-.364 0-8.454 5.56-8.724 5.996-.087.147 1.617 2.8 2.134 3.317.072.071.292-.003.486-.165.197-.162.458-.232.584-.155.2.125 9.751 13.453 10.247 14.301.13.22.046.45-.243.66-.416.304-.397.38.372 1.465.446.63.979 1.385 1.184 1.678.205.293.402.537.435.54.068.009 3.26-2.247 4.077-2.88l.532-.411-1.102-1.596c-1.102-1.595-1.437-1.827-1.931-1.332-.254.255-.754-.318-2.675-3.073l-.535-.767 2.47-1.737c1.358-.955 2.485-1.746 2.503-1.757.037-.012.106-.887.197-1.944l.163-1.924-3.324-4.666-3.325-4.667-1.56-.44c-.858-.243-1.742-.442-1.965-.443zm14.282.345c.042-.04 1.288 1.624 2.78 3.692l2.716 3.76-1.274.57c-2.187.979-2.362 1.029-2.47.705-.198-.588-1.818-8.662-1.752-8.727zm77.072.327-1.69.438c-.928.242-1.824.55-1.99.686-.167.135-1.622 2.06-3.235 4.277l-2.934 4.03.166 1.328.167 1.33 2.676 1.94c1.47 1.068 2.648 2.037 2.615 2.154-.148.52-3.75 5.261-4 5.261-.239 0-3.264-2.079-3.842-2.642-.118-.115.246-.857.833-1.69l1.042-1.486-.832-.684c-1.353-1.112-1.92-1.36-2.163-.942-.114.193-.75 1.103-1.415 2.02l-1.209 1.666.144 1.819c.08 1 .266 1.947.414 2.104.148.156 1.394 1.102 2.766 2.103 1.372 1 2.616 1.82 2.764 1.82.148.002 1.013-.187 1.92-.42l1.65-.423 3.05-4.206 3.05-4.207-.092-1.323-.09-1.322-2.748-2.001c-1.736-1.265-2.685-2.106-2.58-2.284.56-.939 3.81-5.21 3.965-5.21.243 0 4.028 2.72 4.04 2.901 0 .075-.425.717-.954 1.425-.529.71-.958 1.405-.953 1.546 0 .142.582.654 1.28 1.14l1.272.88 1.395-1.928c.767-1.062 1.398-2.054 1.402-2.205 0-.15 0-1.045-.038-1.988l-.042-1.714-2.905-2.096zm-89.879 3.303c.038 0 .038.003.046.012.11.067 1.244 1.605 2.523 3.416a408.055 408.055 0 0 0 2.523 3.554c.126.165-.47.732-1.645 1.562a96.416 96.416 0 0 1-2.144 1.487c-.19.118-.51-.1-.882-.6-1.663-2.24-4.28-5.981-4.398-6.287-.144-.37 3.432-3.17 3.98-3.144z" style="fill:#fff;fill-opacity:1;stroke:none;stroke-width:.618205;stroke-dasharray:none;stroke-opacity:1" transform="matrix(.85513 0 0 .85513 -218.648 -41.657)"/><circle cx="352.97" cy="-122.515" r="1.257" style="fill:#fff;fill-opacity:1;fill-rule:nonzero;stroke:#0d6237;stroke-width:.202248;stroke-linecap:round;stroke-linejoin:round;stroke-miterlimit:4;stroke-dasharray:none;stroke-dashoffset:0;stroke-opacity:1;paint-order:normal" transform="scale(.85513) rotate(35.678 -52.159 -421.611)"/><path d="M319.206 95.642c-1.23.003-2.166.26-2.994.82-.686.464-.904.475-1.512.077-.606-.396-1.136-.59-2.096-.765-.666-.12-2.003-.131-2.57-.02-1.723.34-2.806 1.26-3.212 2.727-.057.292-.095.447-.095 1.164-.004.716.011.887.095 1.265.372 1.661 1.312 3.36 2.868 5.184.133.151.22.281.22.29-.008.007-.106-.052-.22-.132-1.032-.734-2.588-1.556-3.64-1.922-1.053-.365-1.995-.512-2.833-.439-1.923.167-3.219 1.464-3.435 3.44-.115 1.04.157 2.097.736 2.859.106.14.35.408.54.594.582.572.59.637.128 1.08-.555.53-.802 1.05-.893 1.894-.109.997.195 2.246.73 2.995.232.325.722.798 1.178 1.136 1.128.835 2.01.993 3.244.58 1.01-.338 2.087-.998 4.248-2.606 2.192-1.631 3.097-2.148 3.639-2.075.095.013.22.067.277.122.276.257.34.615.394 2.035.062 1.806.21 2.996.437 3.484.196.422.566.756.963.869l.003-.003c.254.073.812.039 1.013-.06.25-.126.322-.269.322-.62-.005-.378-.106-.772-.505-1.96-.38-1.132-.425-1.289-.508-1.803-.237-1.46.16-2.522.98-2.614.185-.021.25-.002.641.19.91.449 2.07 1.187 3.238 2.063 2.62 1.965 4.022 2.746 5.215 2.907.738.1 1.45-.092 2.184-.588 1.223-.825 1.798-1.603 2.08-2.82.128-.553.128-1.562 0-2.03-.144-.52-.32-.82-.732-1.245-.204-.21-.36-.417-.397-.459-.046-.13.09-.328.543-.793.492-.504.647-.72.855-1.168.247-.532.334-.965.334-1.696 0-.701-.064-1.076-.276-1.614-.456-1.15-1.407-1.941-2.653-2.206-.414-.088-1.347-.1-1.805-.023-1.101.185-2.36.645-3.5 1.279-.248.139-.437.252-.475.252-.036 0 .257-.509.843-1.464 1.146-1.868 1.56-2.966 1.56-4.125 0-1.096-.382-1.937-1.259-2.772-.538-.512-1.205-.855-2.103-1.078-.66-.163-1.05-.207-1.795-.206zm-7.732 5.095h2.363l.898 1.204v3.433l-.488.659.488.658v3.444l-.898 1.182h-2.363l-.91-1.182v-1.352h1.285v.84h1.602v-2.534h-1.375v-1.693h1.375v-2.966h-1.602v.852h-1.284v-1.34zm6.66 0h1.272v6.352h.455v1.694h-.455v2.534h-1.284v-2.534h-2.455l-.432-1.443zm-.012 3.307-1.364 3.045h1.364z" style="fill:#fff;fill-opacity:1;stroke:none;stroke-width:.280875;stroke-miterlimit:4;stroke-dasharray:none;stroke-opacity:1" transform="matrix(.85513 0 0 .85513 -218.648 -41.657)"/></svg>