<svg xmlns="http://www.w3.org/2000/svg" width="384.761" height="282.798" viewBox="0 0 101.801 74.824"><path fill="none" d="M0 .001h101.801v74.824H0Z" style="fill:#fff;fill-opacity:0;fill-rule:evenodd;stroke-width:.77956;stroke-dashoffset:3.77697;paint-order:markers fill stroke"/><g transform="matrix(1.497 0 0 1.497 -85.392 -33.477)"><circle cx="126.147" cy="-22.508" r=".626" style="fill:none;fill-opacity:1;fill-rule:nonzero;stroke:#fff;stroke-width:.100765;stroke-linecap:round;stroke-linejoin:round;stroke-miterlimit:4;stroke-dasharray:none;stroke-dashoffset:0;stroke-opacity:1;paint-order:normal" transform="rotate(35.678)"/><g style="font-weight:700;font-size:85.3333px;line-height:7.55906px;font-family:Corbel;-inkscape-font-specification:&quot;Corbel Bold&quot;;letter-spacing:0;word-spacing:0;fill:#fff"><path d="M-1109.575-269.276q0 5.833-3.25 9.916-3.209 4.042-9.959 6v.167l16.584 22.917h-12.25l-15.167-21.584h-7v21.584h-10.208v-55.75h16.958q4.208 0 7.833.5 3.625.458 6.209 1.416 4.916 1.875 7.583 5.584 2.667 3.666 2.667 9.25zm-26 8.875q3.5 0 5.916-.292 2.459-.333 4.125-.958 3.084-1.167 4.25-3.167 1.209-2.042 1.209-4.667 0-2.25-.959-3.958-.916-1.75-3.166-2.75-1.459-.667-3.667-.958-2.208-.334-5.458-.334h-7.292v17.084z" aria-label="R" style="fill:#fff" transform="rotate(40.106 -29.688 204.053) scale(.01274)"/></g></g><path d="M55.843 13.584c-.399-.017-.59.016-.631.083-.237.382-.459 3.127-.26 3.197.779.273.782.188-.227 7.898-.536 4.11-1.022 7.55-1.08 7.646-.057.094-.278.126-.492.07-.468-.123-.58.24-.648 2.108l-.049 1.324 4.01.554c2.204.306 4.243.566 4.529.58.374.015.825-.285 1.602-1.071l1.081-1.095.383-2.76c.212-1.518.73-5.454 1.155-8.745l.77-5.986-.786-1.312a65.88 65.88 0 0 0-.843-1.388c-.036-.04-2.07-.342-4.53-.667-2.085-.277-3.324-.415-3.987-.436zm-10.067.115-4.368.574c-2.402.316-4.447.578-4.544.583-.097.003-.12.54-.043 1.191.244 2.135.308 2.312.855 2.312.272 0 .497.05.497.112 0 .06.42 3.32.93 7.246.51 3.924.949 7.32.975 7.547.036.293-.09.43-.438.48-.462.064-.48.125-.353 1.13.071.584.184 1.362.253 1.73.074.42.237.668.44.668.857 0 8.597-1.09 8.748-1.233.098-.089.515-.73.932-1.423l.757-1.26-1.143-8.699-1.145-8.698-1.176-1.13zm24.157 1.988c-.114 0-.409.578-.655 1.285a87.41 87.41 0 0 1-.573 1.607c-.084.217.045.402.398.562l.522.238v6.032c0 5.828-.033 6.082-.492 7.457-.901 2.608-.878 2.57-1.416 2.366-.452-.172-.513-.095-1.034 1.304-.305.817-.553 1.575-.553 1.683 0 .107.902.535 2.004.95 1.104.415 2.136.736 2.298.713.163-.02.547-.747.869-1.633l.576-1.59-.496-.124-.494-.124.644-1.78c.62-1.717.791-1.953 4.716-6.547 3.494-4.09 4.147-4.762 4.603-4.73.484.036.584-.1 1.11-1.516l.577-1.557-2.376-.861c-1.307-.474-2.402-.836-2.435-.804-.035.034-.331.77-.667 1.64-.58 1.507-.59 1.588-.217 1.706.214.068.391.214.391.325 0 .273-4.568 5.527-4.806 5.527-.114 0-.133-.774-.055-1.882.075-1.035.133-2.702.133-3.704 0-1.79 0-1.82.464-1.706.42.105.52-.037 1.046-1.45.322-.862.539-1.612.486-1.665-.146-.146-4.326-1.722-4.567-1.722zM44.948 17.48c.239 0 .393.017.417.053.162.265 2.1 15.038 1.985 15.152-.048.048-1 .218-2.115.378-1.114.16-2.077.293-2.138.296-.17.01-2.126-15.195-1.975-15.345.204-.203 2.793-.53 3.826-.534zm13.877.085c.361.01 1.157.08 2.054.187l2.175.258-.104.638c-.058.35-.48 3.598-.936 7.216-.456 3.617-.875 6.786-.93 7.04-.113.527-.587.56-3.02.206-1.325-.194-1.388-.228-1.388-.763 0-.723 1.838-14.66 1.948-14.77.032-.016.08-.016.205-.016zm-34.868 1.573c-.849.18-2.43 1.01-2.434 1.277 0 .17.835 4.508 1.864 9.64 1.91 9.542 1.903 9.474 1.122 9.747-.107.038.114.78.49 1.648.379.868.732 1.58.786 1.58.275 0 4.37-1.942 4.37-2.072 0-.16-1.206-2.903-1.33-3.029-.044-.04-.257.026-.482.145-.469.252-.655-.034-.655-.997 0-.53.162-.647 2.196-1.554l2.196-.98.475.594c.49.612.593.9.325.906-.085.002-.273.08-.422.172-.207.132-.102.524.46 1.763.399.876.8 1.562.893 1.524.092-.039 1.107-.47 2.253-.961 2.344-1.003 2.221-.704 1.222-2.953-.464-1.044-.581-1.168-1.09-1.13-.524.037-1.023-.574-6.265-7.669-3.293-4.456-5.814-7.684-5.973-7.65zm60.763 2.737-.815 1.557c-.5.954-.727 1.59-.587 1.642.123.047.393.207.598.356.347.253.349.3.032.757-.184.269-.34.566-.34.661 0 .199.663.02 1.475-.391.452-.23 2.02-2.683 2.02-3.16 0-.063-.536-.408-1.19-.768zm-71.665 3.064c-.31 0-7.229 4.754-7.46 5.127-.074.126 1.383 2.395 1.825 2.837.062.06.25-.003.416-.141.168-.139.391-.199.5-.133.17.107 8.338 11.504 8.762 12.23.11.187.039.384-.208.564-.356.26-.34.325.318 1.252.381.54.837 1.185 1.012 1.435.176.25.344.46.372.462.059.008 2.788-1.921 3.487-2.463l.455-.351-.943-1.365c-.942-1.364-1.228-1.562-1.65-1.139-.218.218-.646-.272-2.288-2.628l-.458-.656 2.112-1.485a808.518 808.518 0 0 1 2.14-1.503c.032-.01.091-.758.17-1.662l.139-1.645-2.843-3.99-2.843-3.991-1.334-.376c-.734-.208-1.49-.378-1.68-.38Zm12.213.295c.036-.034 1.102 1.389 2.378 3.157l2.322 3.215-1.09.488c-1.87.837-2.019.88-2.111.603-.17-.503-1.555-7.408-1.499-7.463zm65.907.28-1.445.374c-.794.207-1.56.47-1.702.587-.143.115-1.387 1.761-2.766 3.657l-2.51 3.446.143 1.136.143 1.137 2.288 1.66c1.257.912 2.264 1.741 2.236 1.841-.126.445-3.207 4.499-3.42 4.499-.205 0-2.792-1.778-3.286-2.26-.1-.098.21-.732.712-1.445l.892-1.27-.712-.585c-1.157-.951-1.642-1.163-1.85-.806-.097.165-.64.943-1.21 1.728l-1.033 1.424.123 1.556c.068.855.227 1.665.354 1.799.126.133 1.192.942 2.365 1.798 1.173.855 2.237 1.557 2.364 1.557.126.001.866-.16 1.641-.36l1.411-.361 2.609-3.597 2.608-3.597-.079-1.132-.077-1.13-2.35-1.711c-1.484-1.082-2.296-1.801-2.206-1.953.479-.803 3.258-4.456 3.39-4.456.208 0 3.445 2.326 3.455 2.481 0 .064-.363.613-.816 1.219-.452.607-.819 1.201-.814 1.322 0 .121.497.559 1.094.974l1.088.753 1.193-1.649c.656-.908 1.195-1.756 1.199-1.885 0-.129 0-.894-.033-1.7l-.036-1.466-2.484-1.792zm-76.858 2.824c.032 0 .032.003.04.01.093.058 1.063 1.373 2.157 2.921a348.94 348.94 0 0 0 2.157 3.04c.108.14-.402.625-1.407 1.335a82.448 82.448 0 0 1-1.833 1.272c-.162.1-.436-.086-.754-.513-1.422-1.916-3.66-5.115-3.761-5.377-.123-.316 2.935-2.71 3.403-2.688z" style="fill:#fff;fill-opacity:1;stroke:none;stroke-width:.528646;stroke-dasharray:none;stroke-opacity:1"/><path d="M54.315 40.13c-1.052.002-1.853.222-2.56.7-.587.397-.774.407-1.294.066-.518-.338-.971-.504-1.792-.654-.57-.102-1.713-.112-2.198-.017-1.473.29-2.4 1.078-2.746 2.332-.049.25-.082.382-.082.995-.003.613.01.759.082 1.082.318 1.42 1.122 2.873 2.452 4.433.114.13.188.24.188.248a.793.793 0 0 1-.188-.113c-.882-.627-2.213-1.33-3.112-1.643-.9-.312-1.706-.438-2.423-.376-1.644.143-2.753 1.252-2.937 2.942-.099.89.134 1.793.629 2.445.09.12.3.349.462.508.497.489.504.544.11.923-.475.453-.687.898-.764 1.62-.094.852.166 1.92.624 2.561.198.278.617.682 1.007.971.965.714 1.719.85 2.774.496.864-.289 1.785-.853 3.633-2.228 1.874-1.395 2.648-1.837 3.112-1.774a.493.493 0 0 1 .236.104c.236.22.291.526.337 1.74.053 1.544.18 2.562.374 2.98.168.36.484.646.824.742l.002-.002c.217.062.695.033.866-.051.214-.108.276-.23.276-.53-.005-.324-.09-.66-.432-1.677-.325-.968-.364-1.102-.434-1.542-.203-1.248.136-2.156.838-2.235.158-.018.213-.002.548.163.778.384 1.77 1.015 2.769 1.764 2.24 1.68 3.439 2.348 4.46 2.486.63.085 1.239-.079 1.867-.503 1.046-.706 1.537-1.37 1.778-2.412.11-.473.11-1.335 0-1.736-.123-.444-.273-.7-.626-1.064-.174-.18-.307-.357-.34-.393-.038-.11.078-.28.465-.678.421-.43.554-.616.731-.999.212-.455.286-.825.286-1.45 0-.6-.055-.92-.236-1.38-.39-.983-1.203-1.66-2.269-1.887-.354-.075-1.152-.085-1.543-.02-.942.159-2.018.552-2.993 1.095-.212.118-.374.215-.406.215-.031 0 .22-.435.72-1.252.98-1.597 1.335-2.536 1.335-3.527 0-.938-.327-1.657-1.077-2.37-.46-.439-1.03-.732-1.798-.923-.565-.139-.898-.177-1.535-.176zm-6.612 4.356h2.02l.768 1.03v2.935l-.417.564.417.563v2.945l-.768 1.01h-2.02l-.778-1.01v-1.156h1.098v.718h1.37v-2.167h-1.175V48.47h1.175v-2.536h-1.37v.729h-1.098v-1.146zm5.695 0h1.088v5.432h.389v1.449h-.39v2.167h-1.097v-2.167h-2.1l-.37-1.234zm-.01 2.828-1.167 2.604h1.167z" style="fill:#fff;fill-opacity:1;stroke:none;stroke-width:.240185;stroke-miterlimit:4;stroke-dasharray:none;stroke-opacity:1"/></svg>