<svg xmlns="http://www.w3.org/2000/svg" width="384.761" height="282.798" viewBox="0 0 101.801 74.824"><path fill="none" d="M-171.714 430.741h101.801v74.824h-101.801z" style="fill:#fff;fill-opacity:0;fill-rule:evenodd;stroke-width:.77956;stroke-dashoffset:3.77697;paint-order:markers fill stroke" transform="translate(171.714 -430.74)"/><path fill="none" d="M-135.022 518.79h79.898v47.261h-79.898z" style="fill:#073763;fill-opacity:0;stroke:none;stroke-width:.163102;stroke-linejoin:round;stroke-opacity:1" transform="translate(171.714 -430.74)"/><g transform="matrix(.56505 0 0 .56505 127.139 -221.741)"><rect width="138.553" height="21.62" x="-204.2" y="467.52" ry=".552" style="fill:#007e00;fill-opacity:1;stroke:none;stroke-width:.217347;stroke-linecap:square;stroke-linejoin:bevel;stroke-dasharray:none;stroke-opacity:1;paint-order:stroke markers fill"/><path d="M-202.193 470.413v15.833h2.672l.036-2.979.036-2.978.956-.04.957-.038 2.19 3.017 2.189 3.018h1.573c.865 0 1.573-.028 1.573-.063 0-.047-3.749-5.15-4.442-6.047-.081-.104.147-.279.723-.554 1.424-.68 2.213-1.626 2.591-3.107.497-1.944-.234-3.98-1.782-4.962-1.302-.826-2.017-.952-5.825-1.03zm134.54.027-1.306.038-1.305.038-.034 5.813-.036 5.813-.438-.726c-.241-.4-2.02-3.03-3.955-5.846l-3.517-5.12h-2.93v15.795h2.675l.034-5.79.035-5.79.469.817c.258.45 2.004 3.053 3.882 5.786l3.414 4.97 1.506.004 1.506.004v-7.903zm-103.55.004-2.91 7.74c-1.602 4.258-2.913 7.813-2.913 7.901 0 .115.399.16 1.391.16h1.391l.718-2.073.717-2.074h3.28l3.28-.001.733 2.075.734 2.074h1.442c.793 0 1.442-.053 1.442-.117s-1.32-3.604-2.933-7.865l-2.933-7.748-1.72-.036zm11.715.006v15.796H-156.814l.035-5.79.035-5.79.32.603c.176.331 1.922 2.937 3.88 5.79l3.558 5.187h3.018V470.45h-2.678v11.709l-.635-1.013c-.35-.557-2.133-3.192-3.963-5.855l-3.327-4.841h-1.46zm39.224 0v15.796H-109.957v-2.409h-7.63V470.45h-1.338zm12.717 0v15.796h10.442v-2.409h-7.631V470.45h-1.405zm12.852 0v15.796h10.308v-2.276h-7.631V479.285H-85.757l.096-.894c.052-.491.126-.973.163-1.07.056-.145-.545-.178-3.226-.178h-3.294v-4.417h7.497v-2.276h-5.087zm-81.888.014c-.198 0-.456.006-.79.014l-1.453.038-2.132 3.462c-1.452 2.356-2.166 3.404-2.239 3.28l-2.043-3.462-1.938-3.28-1.566-.037c-1.298-.032-1.554-.006-1.495.149.04.103 1.342 2.228 2.894 4.722l2.822 4.534v6.362h2.812v-6.412l2.83-4.458c1.557-2.452 2.86-4.565 2.895-4.697.045-.165-.005-.215-.597-.215zm46.331.052h-1.726l-2.907 7.698c-1.599 4.233-2.908 7.772-2.912 7.865-.003.123.361.167 1.383.167h1.386l.73-2.041.729-2.042 3.274-.036 3.274-.036.734 2.077.735 2.077h1.439c1.065 0 1.437-.042 1.433-.166-.003-.092-1.32-3.632-2.926-7.866l-2.92-7.697zm-69.264 2.21h1.64c1.784 0 2.372.11 3.054.57.688.464.962 1.045.962 2.04 0 1.15-.435 1.92-1.337 2.363-.557.275-.87.32-2.478.358l-1.84.043v-2.687zm69.209.402c.038 0 .576 1.431 1.195 3.18l1.186 3.345c.046.13-.485.168-2.379.168-1.893 0-2.425-.038-2.378-.168l1.183-3.347c.618-1.749 1.155-3.178 1.193-3.178zm-39.209.095c.057.057.59 1.475 1.187 3.15a651.822 651.822 0 0 0 1.161 3.247c.067.174-.247.2-2.361.2-1.892 0-2.425-.037-2.38-.167 1.51-4.36 2.312-6.514 2.393-6.43z" style="fill:#fff;fill-opacity:1;stroke-width:.133871"/></g><g transform="matrix(.61362 0 0 .61362 33.346 -204.912)"><circle cx="83.884" cy="364.274" r="8.495" style="fill:#007e00;fill-opacity:1;stroke:none;stroke-width:.263415;stroke-linecap:square;stroke-linejoin:bevel;stroke-dasharray:none;stroke-opacity:1;paint-order:stroke markers fill"/><path d="M82.147 359.106c-.246-.01-.48.251-.894.923-.318.515-.618.937-.666.937-.049 0-.4-.118-.779-.262-.61-.232-.7-.239-.77-.057-.157.41-.07.547.463.723.298.098.573.228.61.29.125.2-.913 1.733-1.12 1.654-.603-.231-.817-.222-.958.041-.188.351-.183.422.03.422.096 0 .284.08.416.177.226.165.203.236-.373 1.135l-.616.96.325.082c.439.11.498.058 1.094-.949.569-.96.568-.96 1.642-.503l.555.236-.607.974c-.603.97-.605.975-.303 1.096.166.067.332.125.37.128.036.003.333-.438.658-.98l.592-.984.788.266c.86.29.835.294.96-.112.074-.242-.006-.317-.553-.522a7.898 7.898 0 0 1-.685-.278c-.104-.086.966-1.663 1.128-1.663.095 0 .336.062.535.138.412.157.394.165.519-.241.079-.257.028-.328-.318-.449-.226-.079-.412-.167-.412-.196 0-.03.272-.49.603-1.022.534-.857.577-.98.369-1.063-.433-.171-.506-.116-1.095.838-.645 1.046-.684 1.06-1.783.597l-.5-.21.598-.963c.438-.703.555-.991.434-1.068a.527.527 0 0 0-.257-.095zm7.112 2.718c-.228-.007-.575.12-1.09.38-.538.27-1.278.53-1.647.576-.968.12-1.114.177-1.208.475-.19.6.58.83 1.723.512.283-.079.548-.11.59-.069.04.041-.33 1.167-.823 2.501-.85 2.301-.885 2.443-.686 2.747.274.417.8.421 1.072.008.327-.5 2.492-6.422 2.45-6.702-.042-.279-.152-.42-.38-.428zm-8.304.093.809.273c.445.15.81.298.81.329 0 .03-.227.416-.503.857-.275.442-.592.797-.702.789-.412-.028-1.405-.506-1.368-.658.02-.087.244-.48.496-.874z" style="fill:#fff;fill-opacity:1;stroke-width:.133871"/></g><path d="m29.775 474.896-.46.049c-.252.027-1.357.122-2.456.212s-2.114.183-2.257.205l-.26.04v25.481h5.433v-12.446l.78-.328c1.23-.517 1.92-.678 2.936-.684.54-.003 1.03.04 1.273.11.51.148.922.56 1.124 1.126.149.416.158.72.182 6.33l.025 5.892h5.426v-6.515c0-5.627-.018-6.599-.127-7.13-.435-2.123-1.93-3.284-4.557-3.54-2.024-.198-4.391.248-6.343 1.195-.33.16-.626.302-.659.317-.033.015-.06-2.3-.06-5.144zm-60.084 1.938v24.05h5.673v-8.794l1.135.023 1.134.022 3.25 4.354 3.25 4.355 3.166.02c3.118.02 3.166.019 3.166-.138 0-.088-1.212-1.733-2.694-3.657l-3.518-4.566c-.453-.588-.814-1.079-.801-1.09.012-.01.306-.137.652-.28 3.08-1.276 4.679-3.538 4.71-6.669.017-1.622-.28-2.668-1.113-3.926-1.401-2.116-4.187-3.38-7.983-3.622-.703-.045-3.246-.082-5.652-.082zm48.2 2.953c-.034-.002-1.274.15-2.757.335l-2.697.338v3.725H9.161v3.915h3.264l.034 4.494c.037 4.935.04 4.97.545 6.028.293.614 1.056 1.456 1.695 1.87.52.338 1.226.595 2.08.758.721.138 2.611.095 3.594-.082.804-.145 2.252-.603 2.74-.866l.327-.177-.551-1.239a319.08 319.08 0 0 0-.74-1.65l-.189-.413-.706.246c-.588.204-.835.247-1.466.253-.938.008-1.295-.144-1.598-.68l-.2-.352-.023-4.094-.024-4.094 2.259-.02 2.259-.022.255-1.758c.141-.967.259-1.839.262-1.938l.006-.18H17.951v-2.196c0-1.209-.027-2.199-.06-2.2zm-42.527 1.268 2.257.033c2.435.036 2.752.08 3.656.518.616.298 1.209.915 1.444 1.502.165.412.19.608.188 1.436-.004 1.153-.16 1.645-.728 2.276-.434.483-1.346.952-2.263 1.164-.449.104-1.095.148-2.577.177l-1.977.038v-3.572zm32.919 2.788-.66.056-2.696.23-2.038.176-.02 6.04-.02 6.041-.54.248c-.296.136-.772.335-1.057.442-1.868.698-3.696.566-4.235-.306-.393-.637-.398-.715-.399-7.012v-5.893h-.176c-.29 0-4.964.403-5.161.445l-.183.039.026 6.53c.024 5.82.042 6.576.16 6.965.589 1.923 2.014 3.095 4.178 3.435.262.042.998.062 1.635.046 1.855-.048 3.364-.435 5.138-1.32.62-.31.955-.438.978-.376.02.053.12.348.223.655l.187.56 2.33.02 2.33.022v-8.522z" style="fill:#fff;fill-opacity:1;stroke-width:.0798994" transform="matrix(.94674 0 0 .94674 45.475 -434.277)"/><g aria-label="CAMBRIDGE SCHOOL COMMITTEE" style="font-weight:700;font-size:5.46899px;line-height:1.25;font-family:Dubai;-inkscape-font-specification:&quot;Dubai Bold&quot;;word-spacing:0;fill:#fff;stroke-width:.115884"><path d="M57.337 204.846q-.443 0-.82-.13-.374-.131-.643-.39-.27-.26-.42-.647-.146-.387-.146-.894 0-.473.141-.857.142-.385.411-.66.26-.264.641-.409.385-.144.839-.144.25 0 .451.03.203.026.374.072.179.05.323.115.147.06.256.114v.964h-.117q-.075-.064-.19-.152-.112-.088-.256-.173-.147-.086-.318-.145-.17-.058-.366-.058-.216 0-.41.069-.196.067-.361.224-.158.153-.257.404-.096.25-.096.608 0 .374.104.625.107.251.267.395.163.147.363.211.2.062.396.062.187 0 .368-.056.184-.056.34-.152.13-.078.242-.166.113-.088.185-.152h.106v.95l-.285.126q-.136.059-.286.101-.195.057-.366.086-.17.03-.47.03zM63.172 204.769h-1.06l-.275-.804h-1.474l-.275.804h-1.034l1.469-3.976h1.18zm-1.584-1.533-.488-1.426-.489 1.426zM67.912 204.769h-1.02v-2.662l-.737 1.727h-.708l-.737-1.727v2.662h-.967v-3.976h1.191l.895 1.994.892-1.994h1.19zM72.329 203.551q0 .289-.118.516-.115.227-.317.376-.235.176-.519.251-.28.075-.713.075h-1.735v-3.976h1.543q.48 0 .703.032.224.032.443.141.227.115.336.31.112.192.112.44 0 .29-.152.51-.152.22-.43.343v.021q.39.077.617.32.23.243.23.641zm-1.314-1.634q0-.099-.05-.198-.049-.098-.174-.147-.113-.042-.28-.045-.166-.005-.468-.005h-.096v.841h.16q.243 0 .414-.008.17-.008.27-.053.139-.062.181-.158.043-.099.043-.227zm.251 1.618q0-.19-.075-.29-.072-.105-.248-.156-.12-.034-.331-.037-.211-.003-.44-.003h-.225v.99h.075q.432 0 .62-.002.186-.003.344-.07.16-.067.219-.176.061-.112.061-.256zM75.322 202.01q0-.15-.061-.256-.062-.107-.211-.168-.104-.043-.243-.05-.139-.012-.323-.012h-.371v1.071h.315q.245 0 .411-.024.166-.024.278-.11.107-.082.155-.18.05-.102.05-.27zm1.6 2.759h-1.253l-1.084-1.458h-.472v1.458h-1.02v-3.976h1.72q.352 0 .605.04.254.04.476.173.224.134.355.348.133.21.133.53 0 .442-.205.72-.203.277-.582.461zM79.52 204.769h-2.328v-.705h.651v-2.566h-.651v-.705h2.328v.705h-.651v2.566h.651zM84.113 202.785q0 .555-.253.996-.254.438-.641.673-.291.176-.639.245-.347.07-.822.07h-1.402v-3.976h1.442q.486 0 .839.082.352.08.592.23.412.251.647.678.237.425.237 1.002zm-1.06-.008q0-.393-.144-.67-.142-.28-.451-.438-.158-.078-.323-.105-.163-.029-.495-.029h-.259v2.489h.26q.365 0 .536-.032.171-.035.334-.123.28-.16.411-.427.131-.27.131-.665zM88.413 204.542q-.267.104-.708.208-.44.102-.879.102-1.014 0-1.588-.55-.575-.553-.575-1.525 0-.927.58-1.493.58-.569 1.615-.569.393 0 .748.072.355.07.79.28V202h-.114q-.075-.056-.22-.158-.143-.104-.277-.176-.155-.086-.363-.147-.206-.061-.438-.061-.272 0-.494.08-.222.08-.398.245-.168.16-.267.409-.096.246-.096.569 0 .66.35 1.01.35.349 1.033.349.059 0 .128-.003.072-.003.131-.008v-.78h-.793v-.75h1.835zM92.207 204.769h-2.876v-3.976h2.876v.769h-1.856v.686h1.723v.77H90.35V204h1.856zM98.12 203.52q0 .587-.5.955-.496.366-1.351.366-.494 0-.863-.085-.365-.089-.686-.222v-.953h.112q.318.253.71.39.396.136.759.136.093 0 .246-.016.152-.016.248-.054.118-.048.192-.12.078-.072.078-.214 0-.13-.112-.224-.11-.096-.324-.147-.224-.053-.475-.099-.248-.048-.467-.12-.502-.163-.724-.44-.219-.28-.219-.695 0-.555.497-.905.5-.352 1.282-.352.392 0 .774.077.385.075.665.19v.916h-.11q-.24-.193-.59-.32-.347-.132-.71-.132-.128 0-.256.019-.126.016-.243.064-.104.04-.18.123-.074.08-.074.184 0 .158.12.243.12.083.454.152l.42.088q.202.043.435.118.456.15.673.409.219.256.219.667zM100.62 204.846q-.444 0-.82-.13-.375-.131-.644-.39-.27-.26-.42-.647-.146-.387-.146-.894 0-.473.141-.857.142-.385.411-.66.26-.264.641-.409.385-.144.839-.144.25 0 .451.03.203.026.374.072.179.05.323.115.147.06.256.114v.964h-.117q-.075-.064-.19-.152-.112-.088-.256-.173-.147-.086-.318-.145-.17-.058-.366-.058-.216 0-.41.069-.196.067-.361.224-.158.153-.257.404-.096.25-.096.608 0 .374.104.625.107.251.267.395.163.147.363.211.2.062.396.062.187 0 .368-.056.184-.056.34-.152.13-.078.242-.166.112-.088.185-.152h.106v.95l-.285.126q-.137.059-.286.101-.195.057-.366.086-.17.03-.47.03zM106.344 204.769h-1.025v-1.752h-1.514v1.752h-1.026v-3.976h1.026v1.455h1.514v-1.455h1.025zM111.226 202.782q0 .95-.545 1.512-.545.558-1.506.558-.959 0-1.503-.558-.545-.561-.545-1.512 0-.959.545-1.514.544-.558 1.503-.558.956 0 1.503.558.548.555.548 1.514zm-1.36 1.007q.15-.182.222-.427.072-.249.072-.583 0-.357-.082-.608-.083-.251-.217-.406-.136-.16-.315-.233-.176-.072-.368-.072-.195 0-.369.07-.17.07-.315.23-.133.149-.219.413-.083.262-.083.61 0 .354.08.605.083.249.217.406.133.158.312.232.18.075.377.075t.376-.075q.18-.077.313-.237zM115.875 202.782q0 .95-.545 1.512-.544.558-1.506.558-.958 0-1.503-.558-.545-.561-.545-1.512 0-.959.545-1.514.545-.558 1.503-.558.956 0 1.504.558.547.555.547 1.514zm-1.36 1.007q.15-.182.223-.427.072-.249.072-.583 0-.357-.083-.608t-.217-.406q-.136-.16-.315-.233-.176-.072-.368-.072-.195 0-.369.07-.17.07-.315.23-.133.149-.219.413-.083.262-.083.61 0 .354.08.605.083.249.217.406.133.158.312.232.18.075.377.075t.376-.075q.18-.077.313-.237zM119.526 204.769h-2.868v-3.976h1.025V204h1.843zM123.809 204.846q-.443 0-.82-.13-.374-.131-.644-.39-.27-.26-.419-.647-.147-.387-.147-.894 0-.473.142-.857.141-.385.411-.66.26-.264.641-.409.385-.144.839-.144.25 0 .45.03.204.026.375.072.179.05.323.115.147.06.256.114v.964h-.117q-.075-.064-.19-.152-.112-.088-.256-.173-.147-.086-.318-.145-.171-.058-.366-.058-.216 0-.411.069-.195.067-.36.224-.158.153-.257.404-.096.25-.096.608 0 .374.104.625.107.251.267.395.163.147.363.211.2.062.395.062.187 0 .369-.056.184-.056.34-.152.13-.078.242-.166.112-.088.184-.152h.107v.95l-.286.126q-.136.059-.285.101-.195.057-.366.086-.171.03-.47.03zM129.836 202.782q0 .95-.545 1.512-.545.558-1.506.558-.959 0-1.503-.558-.545-.561-.545-1.512 0-.959.545-1.514.544-.558 1.503-.558.956 0 1.504.558.547.555.547 1.514zm-1.36 1.007q.15-.182.222-.427.072-.249.072-.583 0-.357-.082-.608-.083-.251-.217-.406-.136-.16-.315-.233-.176-.072-.368-.072-.195 0-.369.07-.17.07-.315.23-.133.149-.219.413-.083.262-.083.61 0 .354.08.605.083.249.217.406.133.158.312.232.18.075.377.075t.376-.075q.18-.077.313-.237zM134.787 204.769h-1.02v-2.662l-.737 1.727h-.708l-.737-1.727v2.662h-.967v-3.976h1.191l.895 1.994.892-1.994h1.19zM139.97 204.769h-1.02v-2.662l-.737 1.727h-.708l-.737-1.727v2.662h-.966v-3.976h1.19l.895 1.994.892-1.994h1.191zM143.135 204.769h-2.329v-.705h.652v-2.566h-.652v-.705h2.329v.705h-.652v2.566h.652zM147.081 201.562h-1.241v3.207h-1.026v-3.207h-1.241v-.77h3.508zM150.81 201.562h-1.242v3.207h-1.026v-3.207H147.3v-.77h3.51zM154.302 204.769h-2.876v-3.976h2.876v.769h-1.856v.686h1.723v.77h-1.723V204h1.856zM158.038 204.769h-2.876v-3.976h2.876v.769h-1.856v.686h1.723v.77h-1.723V204h1.856z" style="fill:#fff" transform="matrix(.76208 0 0 1.17613 -30.393 -179.51)"/></g></svg>