<svg xmlns="http://www.w3.org/2000/svg" width="384.761" height="282.798" viewBox="0 0 101.801 74.824"><path fill="none" d="M-171.714 430.741h101.801v74.824h-101.801z" style="fill:#fff;fill-opacity:0;fill-rule:evenodd;stroke-width:.77956;stroke-dashoffset:3.77697;paint-order:markers fill stroke" transform="translate(171.714 -430.74)"/><path fill="none" d="M-135.022 518.79h79.898v47.261h-79.898z" style="fill:#073763;fill-opacity:0;stroke:none;stroke-width:.163102;stroke-linejoin:round;stroke-opacity:1" transform="translate(171.714 -430.74)"/><path fill="none" d="M-263.515 515.873h101.801v74.824h-101.801z" style="fill:#fff;fill-opacity:0;fill-rule:evenodd;stroke-width:.77956;stroke-dashoffset:3.77697;paint-order:markers fill stroke" transform="translate(263.515 -515.873)"/><g style="fill:#fff;stroke-width:41.8467"><path d="m1797.933 983.344 147.6-87.6c49.2 97.199 138 151.199 240 151.199 90 0 154.8-33.6 154.8-101.999 0-67.2-63.6-96-180-128.4-158.399-44.399-323.999-85.199-323.999-271.199 0-165.599 129.6-265.199 320.399-265.199 182.399 0 290.399 87.6 352.799 182.399l-135.6 103.2c-46.8-75.6-131.999-126-218.399-126-82.8 0-128.399 36-128.399 88.8 0 70.8 66 96 182.399 128.4 156 42 321.6 91.2 321.6 274.799 0 142.8-108 269.999-355.199 269.999-192.002 0-312.001-91.199-378.001-218.399zM2676.316 1184.943V296.946h604.798v163.199h-409.199v190.8h296.399v154.799h-296.399v220.8h430.799v158.399z" style="fill:#fff;stroke-width:41.8467" transform="matrix(.01759 0 0 .01759 -9.937 8.414)"/></g><g style="fill:#fff;stroke-width:41.8467"><path d="m3393.875 1184.943 314.398-891.598h186l314.4 891.598h-198l-66-197.999h-302.399l-68.399 197.999zm296.398-339.599h208.801l-102-302.399h-2.4zM4320.271 1184.943V296.946h195.6l371.998 566.398h2.4V296.946h180v887.998h-180l-387.598-571.199h-2.4v571.199h-180z" style="fill:#fff;stroke-width:41.8467" transform="matrix(.01759 0 0 .01759 -9.937 8.414)"/></g><g style="fill:#fff;stroke-width:41.8467"><path d="M1684.433 2109.744v-596.756H1475.44v-134.369h573.779v134.369h-209.942v596.756zM2117.609 2109.744v-731.125h153.895v731.125zM2391.187 2109.744v-731.125h478.783v134.369h-323.938v157.093h234.642v127.453h-234.642v181.793h341.038v130.417zM2960.209 2109.744v-731.125H3224.3c172.894 0 276.44 64.221 276.44 226.254 0 115.597-52.248 178.829-146.295 208.469l156.744 296.402h-163.394L3201.5 1834.09h-89.297v275.654zm151.995-400.142h105.446c89.297 0 132.045-26.676 132.045-100.776 0-72.125-42.748-98.801-132.045-98.801h-105.446z" style="fill:#fff;stroke-width:41.8467" transform="matrix(.01759 0 0 .01759 -9.937 8.414)"/></g><g style="fill:#fff;stroke-width:41.8467"><path d="M3585.516 2109.744v-731.125h154.845l294.489 466.339h1.9v-466.339h142.495v731.125H4036.75l-306.839-470.291h-1.9v470.291zM4298.93 2109.744v-731.125h478.783v134.369h-323.938v157.093h234.642v127.453h-234.642v181.793h341.038v130.417z" style="fill:#fff;stroke-width:41.8467" transform="matrix(.01759 0 0 .01759 -9.937 8.414)"/></g><path d="M5058.441 2109.744V1799.51L4816.2 1378.619h159.595l160.544 284.546 161.494-284.546h157.694l-243.191 420.891v310.234z" style="fill:#fff;stroke-width:41.8467" transform="matrix(.01759 0 0 .01759 -9.937 8.414)"/><path d="M871.729 2347.609h5174.998v-90H871.729z" style="fill:#4f9ad1;stroke:#fff;stroke-width:20.0292;stroke-dasharray:none;stroke-opacity:1" transform="matrix(.01759 0 0 .01759 -9.937 8.414)"/><path d="M-215.198 570.687h-1.395l-.465 1.594h1.257c.07 0 .086.18.086.31 0 .137-.06.301-.129.301h-1.404l-.5 1.67c-.016.07-.206.087-.335.087-.138 0-.31-.017-.284-.086l.5-1.67h-1.207l-.5 1.67c-.025.069-.206.086-.335.086-.138 0-.31-.017-.293-.086l.508-1.67h-1.18c-.069 0-.086-.165-.086-.302 0-.13.07-.31.13-.31h1.317l.474-1.594h-1.18c-.069 0-.086-.163-.086-.301 0-.13.06-.31.13-.31h1.317l.517-1.74c.017-.069.206-.086.336-.086.137 0 .31.017.284.086l-.517 1.74h1.206l.517-1.74c.025-.069.206-.086.335-.086.138 0 .31.017.293.086l-.525 1.74h1.266c.06 0 .086.18.086.31 0 .138-.06.301-.138.301zm-3.22 0-.475 1.594h1.215l.465-1.594z" style="fill:#4d98cf;fill-opacity:1;stroke:#fff;stroke-width:.175753;stroke-dasharray:none;stroke-opacity:1" transform="translate(263.515 -515.873)"/><path d="M-211.733 570.635c0-.315-.062-.604-.29-.604-.126 0-.29.013-.567.092l-.617.184c-.063.013-.114.013-.14-.04l-.087-.262c-.025-.053-.013-.105.075-.158l3.064-1.564c.088-.04.15-.079.239-.079.076 0 .113.092.113.197 0 .106-.037 2.169-.037 3.864v.552c0 .683.012 2.943.012 3.088.013.683.063.775.694.775h.453c.089 0 .126.04.126.105v.342c0 .066-.037.092-.138.092-.088 0-1.803-.04-2.017-.04-.366 0-2.143.04-2.206.04-.076 0-.1-.026-.1-.092v-.355c0-.079.075-.092.176-.092h.327c.694 0 .883-.04.908-.71.025-.551.013-1.997.013-2.47z" style="fill:#4f9ad1;stroke:#fff;stroke-width:.272442;stroke-dasharray:none;stroke-opacity:1" transform="translate(263.515 -515.873)"/><g style="fill:#fff;stroke:none;stroke-width:.2;stroke-dasharray:none;stroke-opacity:1"><g style="fill:#fff;stroke:none;stroke-width:8.72733;stroke-dasharray:none;stroke-opacity:1"><path d="M3949.211 2609.675c0-70.674 40.974-105.323 92.397-105.323 51.423 0 73.698 27.5 82.498 64.074l-42.349 12.374c-6.6-23.374-16.5-39.324-40.425-39.324-30.799 0-47.299 26.125-47.299 68.199 0 42.898 17.05 69.849 47.849 69.849 23.925 0 35.75-15.125 42.899-42.899l42.074 9.35c-9.899 40.975-34.099 69.573-85.248 69.573-53.073-.001-92.396-34.1-92.396-105.873zM4134.01 2711.697l72.049-204.32h42.624l72.049 204.32h-45.374l-15.125-45.374h-69.299l-15.674 45.374zm67.924-77.823h47.85l-23.375-69.299h-.55z" style="fill:#fff;stroke:none;stroke-width:8.72733;stroke-dasharray:none;stroke-opacity:1" transform="matrix(.01759 0 0 .01759 -9.937 8.008)"/></g><g style="fill:#fff;stroke:none;stroke-width:8.72733;stroke-dasharray:none;stroke-opacity:1"><path d="M4360.202 2711.697v-203.495h59.124l45.374 149.597h.55l42.35-149.597h60.498v203.495h-43.174v-138.872h-.551c-3.024 17.6-6.874 30.524-11.274 45.374l-30.524 93.498h-39.599l-30.249-93.498c-4.676-15.399-7.426-24.199-11.825-47.574h-.55v141.072zM4612.649 2711.697v-203.495h81.398c37.399 0 72.599 9.074 72.599 50.323 0 28.875-18.15 42.624-38.774 46.749v.55c24.749 4.4 44.274 17.325 44.274 49.774 0 40.974-36.024 56.099-73.974 56.099zm43.999-119.622h32.999c23.375 0 34.1-8.8 34.1-24.475 0-15.95-9.625-24.75-33.549-24.75h-33.55zm0 85.523h36.024c24.749 0 35.749-9.899 35.749-27.224 0-17.875-12.925-26.675-37.674-26.675h-34.1v53.899z" style="fill:#fff;stroke:none;stroke-width:8.72733;stroke-dasharray:none;stroke-opacity:1" transform="matrix(.01759 0 0 .01759 -9.937 8.008)"/></g><g style="fill:#fff;stroke:none;stroke-width:8.72733;stroke-dasharray:none;stroke-opacity:1"><path d="M4817.429 2711.697v-203.495h76.448c50.049 0 80.023 17.874 80.023 62.974 0 32.174-15.125 49.773-42.35 58.023l45.375 82.498h-47.299l-42.35-76.724h-25.85v76.724zm43.999-111.372h30.524c25.85 0 38.224-7.425 38.224-28.05 0-20.074-12.374-27.499-38.224-27.499h-30.524zM5013.5 2711.697v-203.495h44.549v203.495z" style="fill:#fff;stroke:none;stroke-width:8.72733;stroke-dasharray:none;stroke-opacity:1" transform="matrix(.01759 0 0 .01759 -9.937 8.008)"/></g><g style="fill:#fff;stroke:none;stroke-width:8.72733;stroke-dasharray:none;stroke-opacity:1"><path d="M5110.386 2711.697v-203.495h62.424c62.148 0 108.897 26.399 108.897 100.647 0 76.448-47.574 102.848-108.897 102.848zm44.55-36.299h20.898c44.274 0 61.049-19.8 61.049-65.999 0-43.449-17.049-63.799-61.599-63.799h-20.349v129.798zM5308.108 2609.125c0-63.799 35.474-104.773 92.673-104.773 38.499 0 69.299 15.4 82.223 65.174l-40.974 11.274c-8.524-28.324-21.449-39.324-41.524-39.324-16.5 0-47.299 9.625-47.299 66.824 0 56.924 27.5 71.224 49.225 71.224 22.274 0 37.674-14.025 41.799-36.574h-35.475v-33.274h78.099v102.022h-36.024v-28.05h-.55c-4.4 12.101-22.274 31.899-53.074 31.899-61.6 0-89.099-45.099-89.099-106.422z" style="fill:#fff;stroke:none;stroke-width:8.72733;stroke-dasharray:none;stroke-opacity:1" transform="matrix(.01759 0 0 .01759 -9.937 8.008)"/></g><path d="M5536.558 2711.697v-203.495h138.597v37.398h-93.772v43.725h67.923v35.474h-67.923v50.6h98.723v36.299h-143.548z" style="fill:#fff;stroke:none;stroke-width:8.72733;stroke-dasharray:none;stroke-opacity:1" transform="matrix(.01759 0 0 .01759 -9.937 8.008)"/><g style="fill:#fff;stroke:none;stroke-width:8.72733;stroke-dasharray:none;stroke-opacity:1"><path d="M3949.211 2934.675c0-70.674 40.974-105.323 92.397-105.323 51.423 0 73.698 27.5 82.498 64.074l-42.349 12.374c-6.6-23.374-16.5-39.324-40.425-39.324-30.799 0-47.299 26.125-47.299 68.199 0 42.898 17.05 69.849 47.849 69.849 23.925 0 35.75-15.125 42.899-42.899l42.074 9.35c-9.899 40.975-34.099 69.573-85.248 69.573-53.073-.001-92.396-34.1-92.396-105.873zM4161.507 3036.697v-203.495h44.549v203.495z" style="fill:#fff;stroke:none;stroke-width:8.72733;stroke-dasharray:none;stroke-opacity:1" transform="matrix(.01759 0 0 .01759 -9.937 8.008)"/></g><g style="fill:#fff;stroke:none;stroke-width:8.72733;stroke-dasharray:none;stroke-opacity:1"><path d="M4302.129 3036.697V2870.6h-60.499v-37.398h166.097v37.398h-60.773v166.097zM4497.377 3036.697v-86.348l-70.123-117.147h46.199l46.474 79.198 46.749-79.198h45.648l-70.398 117.147v86.348z" style="fill:#fff;stroke:none;stroke-width:8.72733;stroke-dasharray:none;stroke-opacity:1" transform="matrix(.01759 0 0 .01759 -9.937 8.008)"/></g><g style="fill:#fff;stroke:none;stroke-width:8.72733;stroke-dasharray:none;stroke-opacity:1"><path d="M4709.863 2934.675c0-70.674 40.975-105.323 92.398-105.323 51.423 0 73.698 27.5 82.498 64.074l-42.35 12.374c-6.6-23.374-16.499-39.324-40.424-39.324-30.799 0-47.299 26.125-47.299 68.199 0 42.898 17.05 69.849 47.85 69.849 23.924 0 35.748-15.125 42.898-42.899l42.074 9.35c-9.9 40.975-34.1 69.573-85.248 69.573-53.072-.001-92.397-34.1-92.397-105.873zM4909.512 2934.949c0-71.498 46.749-105.598 95.974-105.598 48.948 0 95.697 34.1 95.697 105.598 0 71.499-46.749 105.598-95.697 105.598-49.225 0-95.974-34.099-95.974-105.598zm147.122 0c0-42.624-19.8-68.474-51.148-68.474-31.625 0-51.149 25.85-51.149 68.474s19.524 69.574 51.149 69.574c31.348 0 51.148-26.95 51.148-69.574zM5131.438 2958.874v-125.672h44.824v124.572c0 29.424 11.274 45.924 37.949 45.924 26.399 0 37.398-16.225 37.398-45.924v-124.572h43.999v125.396c0 50.049-25.299 81.398-81.947 81.398-56.648.001-82.223-31.349-82.223-81.122zM5336.036 3036.697v-203.495h44.824l85.248 129.797h.55v-129.797h41.249v203.495h-41.249l-88.823-130.897h-.55v130.897zM5542.009 2934.675c0-70.674 40.975-105.323 92.398-105.323 51.423 0 73.698 27.5 82.498 64.074l-42.349 12.374c-6.601-23.374-16.5-39.324-40.425-39.324-30.799 0-47.299 26.125-47.299 68.199 0 42.898 17.05 69.849 47.849 69.849 23.925 0 35.75-15.125 42.899-42.899l42.074 9.35c-9.899 40.975-34.1 69.573-85.248 69.573-53.073-.001-92.397-34.1-92.397-105.873zM5756.231 3036.697v-203.495h44.549v203.495z" style="fill:#fff;stroke:none;stroke-width:8.72733;stroke-dasharray:none;stroke-opacity:1" transform="matrix(.01759 0 0 .01759 -9.937 8.008)"/></g><path d="M5876.218 3036.697v-203.495h44.824v167.196h89.647v36.299z" style="fill:#fff;stroke:none;stroke-width:8.72733;stroke-dasharray:none;stroke-opacity:1" transform="matrix(.01759 0 0 .01759 -9.937 8.008)"/></g><path d="m-250.522 533.823-1.377 4.257h-4.542l3.704 2.753-1.44 4.369 3.655-2.69 3.656 2.69-1.424-4.369 3.671-2.753h-4.558zm75.2 0-1.376 4.257h-4.542l3.703 2.753-1.44 4.369 3.656-2.69 3.655 2.69-1.424-4.369 3.672-2.753h-4.558z" style="fill:#4d98cf;fill-opacity:1;stroke:#fff;stroke-width:.429;stroke-dasharray:none;stroke-opacity:1" transform="translate(263.515 -515.873)"/><g aria-label="VOTE" style="font-size:11.5706px;line-height:0;font-family:Dubai;-inkscape-font-specification:Dubai;letter-spacing:-.0851769px;word-spacing:0;fill:#4d98cf;stroke:#fff;stroke-width:.336437"><path d="m-1023.491 859.868-3.068 8.412h-2.43l-3.067-8.412h2.277l2.034 5.91 2.034-5.91zM-1014.323 864.077q0 2.011-1.153 3.198-1.153 1.18-3.187 1.18-2.028 0-3.18-1.18-1.153-1.187-1.153-3.198 0-2.028 1.153-3.203 1.152-1.181 3.18-1.181 2.023 0 3.181 1.18 1.158 1.176 1.158 3.204zm-2.876 2.13q.316-.384.469-.904.152-.525.152-1.232 0-.757-.175-1.288-.175-.53-.458-.859-.288-.339-.666-.491-.373-.153-.78-.153-.412 0-.78.147-.361.147-.666.486-.283.317-.463.876-.176.554-.176 1.288 0 .751.17 1.282.175.526.458.86.282.333.66.49.38.159.797.159.418 0 .797-.158.378-.164.66-.503zM-1006.308 861.495h-2.628v6.785h-2.17v-6.785h-2.626v-1.627h7.423zM-999.141 868.28h-6.085v-8.412h6.085v1.627h-3.927v1.452h3.645v1.627h-3.645v2.08h3.927z" style="font-weight:700;-inkscape-font-specification:&quot;Dubai Bold&quot;;letter-spacing:-.22231px" transform="matrix(.97067 0 0 1.03021 1009.951 -833.38)"/></g></svg>