<svg xmlns="http://www.w3.org/2000/svg" width="384.761" height="282.798" viewBox="0 0 101.801 74.824"><path fill="none" d="M-171.714 430.741h101.801v74.824h-101.801z" style="fill:#fff;fill-opacity:0;fill-rule:evenodd;stroke-width:.77956;stroke-dashoffset:3.77697;paint-order:markers fill stroke" transform="translate(171.714 -430.74)"/><path fill="none" d="M0 .001h101.801v74.824H0Z" style="fill:#fff;fill-opacity:0;fill-rule:evenodd;stroke-width:.77956;stroke-dashoffset:3.77697;paint-order:markers fill stroke"/><path d="M52.581 60.933a1.438 1.486 0 0 1-.976-.67c-.036-.058-.07-.103-.08-.103l-.311.04c-.162.021-.625.074-1.029.115-.69.073-.808.076-2.002.076-1.39 0-2.07-.04-2.938-.165l-.307-.047-.194.208c-.301.318-.607.461-.997.461-.265 0-.444-.04-.678-.151l-.19-.09-.158.083a1.32 1.364 0 0 1-.692.156 1.177 1.217 0 0 1-.489-.08l-.22-.079-.166.072c-.15.065-.203.072-.502.072-.39 0-.548-.036-.791-.202a1.528 1.58 0 0 1-.293-.273l-.13-.164-.855-.011c-.884-.018-1.222-.052-1.628-.158-.419-.11-.718-.314-.832-.565a1.015 1.05 0 0 1-.009-.715c.162-.45.506-.8 1.4-1.427.24-.17.44-.318.44-.33a1.22 1.26 0 0 0-.193-.165c-.247-.19-1.018-.971-1.345-1.362a6.145 6.352 0 0 1-1.438-3.138 10.915 11.282 0 0 1-.04-1.879c.163-1.639.853-2.888 1.975-3.564.575-.35 1.39-.485 2.124-.355.44.08.917.243 1.372.476.213.104.388.189.39.186a7.909 8.174 0 0 0 .107-.394c.33-1.307 1.166-3.914 1.928-6.013.153-.424.272-.784.265-.801-.007-.02-.261-.099-.569-.18-2.012-.53-3.892-1.207-5.481-1.976-1.49-.72-3.5-1.833-4.272-2.366-.644-.445-.752-.584-.95-1.207-.066-.207-.075-.275-.073-.58 0-.253.017-.407.057-.585.158-.675.53-1.408 1.218-2.394.575-.826.68-.99.95-1.456.148-.254.677-1.3 1.174-2.325a87.942 87.942 0 0 1 1.134-2.274c.126-.227.227-.43.227-.453a3.1 3.1 0 0 0-.213-.418c-.567-1.002-.952-2.297-1.177-3.953a15.21 15.72 0 0 1-.052-2.412c.144-1.54.835-2.637 1.887-2.996.163-.053.236-.063.651-.065.364 0 .515.012.681.052.824.2 1.821.754 2.736 1.52.285.238 1.158 1.128 1.493 1.522.232.274.728.952.845 1.158.022.04.059.036.388-.104a11.36 11.36 0 0 1 3.336-.825 19.996 20.668 0 0 1 2.47.017 16.587 17.143 0 0 1 4.115.9c.003 0 .075-.121.158-.27.378-.663.857-1.271 1.624-2.064.56-.577.933-.907 1.39-1.234.71-.506 1.456-.879 2.124-1.061.217-.059.313-.069.668-.07.486 0 .671.035 1.012.207.707.357 1.224 1.124 1.47 2.178.102.44.134.827.134 1.612 0 1.318-.212 2.68-.611 3.922-.266.833-.562 1.446-.954 1.985-.123.17-.223.317-.223.326 0 .007.177.293.395.63.217.337.586.922.819 1.304l1.108 1.807c.834 1.357 1.082 1.787 1.416 2.47.582 1.18.857 2.143.857 2.994 0 .405-.036.662-.149 1.003-.083.258-.083.327-.01.526l.057.155-.22.214c-.394.379-.895.75-1.775 1.315-2.94 1.894-5.822 3.155-8.732 3.824-.329.075-1.64.33-1.7.33-.052 0-.006.094.232.477.596.955 1.18 2.123 1.775 3.554.098.235.2.492.225.572.029.08.057.145.066.145.01 0 .1-.172.196-.38.488-1.045 1.089-1.97 1.746-2.681.94-1.02 1.733-1.643 2.813-2.209a9.191 9.191 0 0 1 1.744-.722l.285-.09-.007-.136-.007-.139 1.083-.201c1.333-.249 1.65-.315 2.243-.467 1.204-.31 2.107-.7 2.929-1.262.523-.36.873-.666 1.54-1.343l.61-.623-.018.588c-.073 2.46-.627 4.469-1.854 6.74a25.633 26.494 0 0 1-2.292 3.445c-.003.006-.036-.01-.063-.036-.075-.07-.123-.04-.44.265-.964.933-1.65 1.5-2.577 2.128-.59.4-.756.503-1.348.835-.265.148-.499.287-.52.307-.035.035-.028.07.02.293.1.444.118.642.103 1.167a4.98 5.147 0 0 1-.217 1.446c-.345 1.234-1.187 2.662-2.343 3.971-.15.173-.32.37-.378.442l-.102.126.062.047c.036.021.346.238.692.471.777.527 1.002.697 1.227.933.335.353.505.703.505 1.05.001.533-.47.865-1.437 1.012-.24.036-.513.047-1.193.047h-.883l-.153.142c-.291.268-.555.354-1.033.335-.233-.006-.305-.021-.432-.083l-.154-.072-.167.072c-.154.066-.198.072-.555.074h-.387l-.238-.107-.237-.108-.123.072a1.534 1.586 0 0 1-.891.159z" style="fill:#0ea5e9;fill-opacity:1;stroke:#fff;stroke-width:1.07751;stroke-dasharray:none;stroke-opacity:1"/></svg>