<svg xmlns="http://www.w3.org/2000/svg" width="384.761" height="282.798" viewBox="0 0 101.801 74.824"><defs><filter id="a" width="1.144" height="1.102" x="-.051" y="-.036" style="color-interpolation-filters:sRGB"><feFlood flood-color="#000" flood-opacity=".157" result="flood"/><feComposite in="flood" in2="SourceGraphic" operator="in" result="composite1"/><feGaussianBlur in="composite1" result="blur" stdDeviation=".5"/><feOffset dx="1" dy="1" result="offset"/><feComposite in="SourceGraphic" in2="offset" result="composite2"/></filter></defs><path fill="none" d="M-171.714 430.741h101.801v74.824h-101.801z" style="fill:#fff;fill-opacity:0;fill-rule:evenodd;stroke-width:.77956;stroke-dashoffset:3.77697;paint-order:markers fill stroke" transform="translate(171.714 -430.74)"/><path fill="none" d="M-135.022 518.79h79.898v47.261h-79.898z" style="fill:#073763;fill-opacity:0;stroke:none;stroke-width:.163102;stroke-linejoin:round;stroke-opacity:1" transform="translate(171.714 -430.74)"/><path d="M469.095 524.066c-1.769-.873-2.438-2.362-2.456-5.461l-.011-2.05h3.968v1.82c0 1.984.31 2.518 1.375 2.367.516-.073.623-.266.693-1.256.046-.643.01-1.46-.078-1.815-.09-.355-1.27-1.804-2.625-3.22-2.939-3.07-3.475-4.177-3.269-6.744.23-2.877 1.466-4.244 4.117-4.557 1.564-.184 3.233.257 4.269 1.128.827.696 1.604 2.692 1.604 4.122v.746h-4.234v-.894c0-.491-.172-1.037-.384-1.212-.486-.404-1.402-.127-1.535.465-.202.895.41 1.817 2.86 4.313 1.378 1.404 2.687 3 2.927 3.571.688 1.632.583 5.074-.202 6.656-.914 1.842-1.982 2.448-4.3 2.44-1.16-.003-2.2-.164-2.72-.42zm11.29-8.173v-8.599h-2.645V503.325H487V507.294h-2.645v17.198H480.386zm7.48 7.201c.079-.769.538-5.531 1.02-10.583l.877-9.186h6.996l.153 1.125c.085.618.506 4.934.936 9.59.43 4.658.846 8.914.924 9.46l.142.992h-3.975l-.003-.728a13.45 13.45 0 0 0-.167-1.72c-.163-.984-.173-.992-1.424-.992-1.45 0-1.581.178-1.581 2.139v1.3H487.72zm6.446-6.473c-.08-.546-.276-2.719-.436-4.83-.307-4.037-.464-5.175-.684-4.955-.12.12-.873 8.721-.891 10.181-.007.522.126.596 1.074.596h1.081zm7.77-.728v-8.599h-2.38V503.325H508.696V507.294h-2.38v17.198h-4.234zm7.938-1.984v-10.584H518.486V507.294H514.253V511.527h3.968V515.496h-3.968V520.523h4.498V524.492h-8.732zm16.14-.019v-10.602l4.08.085c3.884.08 4.113.115 4.755.719.947.89 1.282 2.124 1.294 4.76.01 2.488-.442 3.827-1.395 4.13-.617.195-.716.662-.141.662.627 0 1.163 1.087 1.24 2.514.038.727.044 2.9.013 4.828l-.057 3.506h-3.968v-4.577c0-4.733-.103-5.213-1.112-5.213-.441 0-.476.358-.476 4.895v4.895H526.16V513.89zm5.826-3.03c.354-.427.464-3.02.15-3.53-.103-.165-.537-.3-.965-.3h-.778v2.116c0 2.052.02 2.117.63 2.117.345 0 .779-.182.963-.404zm5.816 3.049v-10.584h8.466V507.294H542.034V511.527H546.003V515.496H542.034V520.523h4.498V524.492H537.8zm10.318 0v-10.584h3.533c3.227 0 3.61.052 4.417.597.487.327 1.107.975 1.378 1.439.763 1.307 1.083 3.983.74 6.19-.524 3.382-1.316 4.203-4.255 4.413l-1.844.132v8.396H548.119zm5.602-2.026c.373-.337.484-.827.484-2.134 0-2.112-.298-2.72-1.333-2.72h-.784v2.646c0 2.54.023 2.646.574 2.646.316 0 .793-.197 1.059-.438zm-110.133-18.615c-4.015-.68-5.8-3.606-5.8-9.508v-2.395h6.085v2.232c0 2.24.291 3.538.877 3.91.642.408 1.746.216 2.052-.356.424-.792.337-3.469-.15-4.635-.231-.554-1.877-2.481-3.793-4.444-4.358-4.461-4.941-5.543-4.932-9.143.007-2.78.557-4.468 1.926-5.91 1.422-1.5 2.565-1.895 5.476-1.894 2.237 0 2.84.096 3.903.619 2.307 1.135 3.485 3.211 3.811 6.714l.167 1.794h-6.426v-1.208c0-1.672-.354-2.231-1.412-2.231-.475 0-1.006.143-1.181.317-.4.401-.411 1.917-.019 2.677.165.318 1.929 2.245 3.92 4.282 3.941 4.03 4.63 5.101 5.1 7.934.398 2.407-.063 6.08-1.005 8.007-1.402 2.865-4.317 3.963-8.6 3.238zm17.297.006c-.611-.13-1.385-.376-1.72-.547-1.202-.617-2.606-2.24-3.183-3.678-.575-1.434-.59-1.752-.677-14.63l-.09-13.162h6.121l.002 12.105c0 7.454.106 12.48.273 13.081.291 1.05.926 1.427 1.964 1.166.338-.085.716-.363.84-.62.125-.255.263-6.15.306-13.098l.08-12.634h6.096l-.098 13.03c-.087 11.534-.152 13.193-.562 14.436-.56 1.7-2.032 3.404-3.502 4.056-1.287.571-4.29.826-5.85.495zm12.357-16.01v-16.007h6.35v26.723h6.615v5.292h-12.965zm14.817 0v-16.007h6.35v26.723h6.614v5.292H488.06zm14.552 0v-16.007h6.085v32.015h-6.085zm11.784 15.154c-.081-.476-.917-7.177-1.857-14.89a3508.78 3508.78 0 0 0-1.867-15.155l-.158-1.134 2.99.075 2.99.075 1.112 10.187c.611 5.602 1.132 10.424 1.157 10.715.11 1.29.55-2.233 1.304-10.45.448-4.876.876-9.251.952-9.724l.138-.86h2.898c2.59 0 2.897.05 2.886.463-.007.255-.877 7.428-1.934 15.941l-1.92 15.478-4.271.073-4.271.072zm13.88.09c0-.42.655-7.502 1.456-15.737.8-8.235 1.455-15.094 1.455-15.243 0-.176 1.884-.271 5.368-.271h5.368l1.403 14.75c.772 8.113 1.47 15.316 1.549 16.008l.144 1.256h-5.862l-.14-1.124c-.076-.618-.21-1.81-.3-2.646l-.16-1.521h-3.864l-.166.827c-.09.454-.165 1.457-.165 2.227 0 2.287.071 2.237-3.203 2.237h-2.882zm9.79-10.08c0-1.12-1.352-15.732-1.466-15.847a.17.17 0 0 0-.239-.004c-.124.125-1.205 14.022-1.205 15.5v.876h1.455c1.274 0 1.455-.066 1.455-.525zm8.996-5.164v-16.007h6.512l1.44 7.597 1.44 7.597.07-7.597.071-7.597h6.077v32.014h-3.014c-2.907 0-3.019-.02-3.155-.595-.077-.327-.75-3.69-1.494-7.474-.744-3.784-1.459-7.118-1.59-7.409-.145-.326-.243 2.533-.254 7.475l-.018 8.003h-6.085zm-105.833-35.322v-12.965h-3.705v-6.085h13.759v6.085H447.313v25.93h-6.085zm11.641-3.043v-16.007h6.086v32.015h-6.086zm8.732 0v-16.007h4.894c2.692 0 4.895.09 4.895.198-.001.434 2.41 17.97 2.555 18.587.086.364.198.543.25.397.051-.145.634-4.253 1.294-9.128s1.261-9.131 1.334-9.459c.132-.59.173-.595 4.89-.595h4.758v32.015h-5.556v-11.554c0-6.354-.058-11.495-.129-11.425-.07.071-.904 5.002-1.852 10.958-.947 5.957-1.785 11.098-1.86 11.425-.132.57-.253.596-2.887.596h-2.75l-.302-1.786c-.166-.983-1.059-6.192-1.984-11.576l-1.681-9.79-.024 11.576-.025 11.576h-5.82zm28.045 0v-16.007H499.147l.145.86c.08.473.62 4.372 1.2 8.665 1.253 9.265 1.344 9.859 1.49 9.713.08-.08 2.736-18.636 2.745-19.172 0-.036 2.203-.066 4.895-.066h4.895v32.015h-5.82v-11.554c0-6.354-.046-11.504-.102-11.443-.056.06-.92 5.26-1.919 11.553l-1.816 11.442h-2.794l-2.794.001-1.93-11.443c-1.062-6.293-1.977-11.492-2.035-11.553-.057-.06-.104 5.089-.104 11.443v11.554h-5.557zm31.75 10.893v-5.114l-2.603-10.893-2.603-10.893H522.38l.851 5.224c.468 2.873.896 5.268.95 5.323.143.143.306-.67 1.05-5.255.367-2.256.728-4.37.802-4.697.13-.575.239-.595 3.178-.595 3.02 0 3.041.004 2.9.595l-2.518 10.611-2.377 10.015v10.794h-5.82z" style="fill:#fff;fill-opacity:1;stroke-width:.264583;filter:url(#a)" transform="matrix(.54579 0 0 .54579 -223.49 -222.92)"/><path d="M446.375 532.314c-1.955-.397-3.532-1.328-5.327-3.144-.946-.958-2.126-2.507-2.622-3.444l-.903-1.703.89-1.735c1.278-2.495 4.142-5.307 6.207-6.095 3.416-1.304 7.204-.607 9.573 1.762 1.227 1.227 2.11 2.927 1.723 3.314-.176.176-.575-.221-1.196-1.191-1.57-2.454-3.761-3.628-6.766-3.624-2.253.003-4.154.858-6.062 2.724-1.52 1.487-3.225 4.052-3.225 4.851 0 .796 2.008 3.648 3.581 5.085 3.035 2.773 6.937 3.208 10.203 1.137 1.021-.648 2.585-2.527 2.97-3.57.083-.226.207-.219.469.028.85.803-2.072 4.2-4.336 5.043-1.749.65-3.701.862-5.18.562zm-1.51-5.102c-.09-.237.192-.92.664-1.607l.822-1.195-2.256-.076c-3.69-.126-2.806-.591 1.4-.738l3.787-.133-1.2-1.587c-.659-.873-1.202-1.736-1.206-1.918-.017-.808.793-.18 2.124 1.646l1.441 1.977 5.093.007c4.348.006 5.093.065 5.093.404 0 .333-.572.397-3.562.397h-3.562l-1.082 1.594c-.596.877-1.195 1.525-1.333 1.44-.392-.242-.301-.605.411-1.654.364-.536.662-1.065.662-1.177 0-.112-1.06-.203-2.354-.203h-2.354l-.835 1.303c-1.076 1.676-1.539 2.077-1.753 1.52zm-6.463-21.74v-7.541h5.821v2.91h-2.91V503.222h2.646v2.911h-2.646v6.88h-2.911zm8.338 6.967c-1.28-1.008-1.458-1.873-1.458-7.1 0-5.206.204-6.216 1.42-7.012.9-.59 3.377-.608 4.258-.03 1.5.983 1.598 1.413 1.598 7.03 0 5.735-.178 6.491-1.711 7.284-1.175.607-3.225.521-4.107-.172zm2.8-2.798c.162-.427.24-2.388.191-4.772-.066-3.206-.164-4.098-.472-4.287-.907-.56-1.067.171-1.067 4.878 0 2.504.08 4.633.176 4.73.386.385.91.14 1.171-.549zm4.473-4.17v-7.54h2.79c2.589 0 2.836.046 3.422.632 1.182 1.182 1.29 5.103.166 6.013l-.583.473.542.542c.49.49.542.867.542 3.982v3.44h-2.91v-3.44c0-3.264-.027-3.44-.53-3.44-.502 0-.529.176-.529 3.44v3.44h-2.91zm4.1-3.439c0-1.17-.068-1.333-.594-1.407-.557-.08-.596.011-.596 1.407 0 1.396.039 1.487.596 1.408.526-.075.595-.237.595-1.408z" style="fill:#92d11b;fill-opacity:1;stroke:none;stroke-width:.45;stroke-dasharray:none;stroke-opacity:1;filter:url(#a)" transform="matrix(.54579 0 0 .54579 -223.49 -222.92)"/><g style="fill:#92d11b;fill-opacity:1;stroke:none;stroke-width:.45;stroke-dasharray:none;stroke-opacity:1;filter:url(#a)" transform="matrix(.54579 0 0 .54579 -223.549 -143.409)"><path d="M544.367 303.214c-2.913-1.678-5.066-4.58-5.843-7.878-.46-1.951-.215-5.579.505-7.475 1.38-3.634 5.123-7.452 9.464-9.655l1.959-.995 1.774.872c5.732 2.818 9.616 7.467 10.387 12.431.809 5.217-1.348 9.82-5.953 12.703-1.428.894-2.127 1.025-2.351.441-.165-.429.1-.683 1.403-1.346.505-.257 1.59-1.107 2.41-1.89 3.598-3.431 4.386-8.61 2.037-13.377-1.19-2.413-4.696-5.808-7.537-7.296l-2.169-1.137-1.137.579c-6.542 3.326-9.924 8.192-9.696 13.947.082 2.06.208 2.561 1.09 4.347 1.1 2.223 2.626 3.78 4.774 4.872.878.446 1.247.785 1.188 1.094-.137.712-.77.647-2.305-.237z" style="fill:#92d11b;fill-opacity:1;stroke:none;stroke-width:.45;stroke-dasharray:none;stroke-opacity:1"/><path d="M550.085 310.484c-.103-.102-.19-2.458-.195-5.235l-.01-5.05-2.173-1.454c-1.195-.8-2.173-1.633-2.173-1.849 0-.749.91-.562 2.488.508.87.592 1.65 1.076 1.73 1.076.081 0 .143-1.578.138-3.506l-.009-3.505-2.174-1.456c-1.195-.8-2.173-1.632-2.173-1.848 0-.749.91-.563 2.488.508.87.592 1.65 1.076 1.73 1.076.081 0 .147-1.433.147-3.184 0-2.674.068-3.209.424-3.345a.569.569 0 0 1 .657.206c.129.203.236 2.662.238 5.463.002 2.801.068 5.093.146 5.093.078 0 1.173-.778 2.434-1.729 2.209-1.666 3.113-2.008 3.113-1.178 0 .216-1.273 1.345-2.828 2.51l-2.828 2.117-.083 7.405c-.071 6.432-.136 7.415-.492 7.483-.225.044-.493-.005-.595-.106z" style="fill:#92d11b;fill-opacity:1;stroke:none;stroke-width:.45;stroke-dasharray:none;stroke-opacity:1"/></g></svg>